<?xml version="1.0" standalone="no"?>
<!DOCTYPE svg PUBLIC "-//W3C//DTD SVG 20010904//EN"
 "http://www.w3.org/TR/2001/REC-SVG-20010904/DTD/svg10.dtd">
<svg version="1.0" xmlns="http://www.w3.org/2000/svg"
 width="600.000000pt" height="200.000000pt" viewBox="0 0 600.000000 200.000000"
 preserveAspectRatio="xMidYMid meet">

<g transform="translate(0.000000,200.000000) scale(0.100000,-0.100000)"
fill="#000000" stroke="none">
<path d="M865 1507 l-340 -172 0 -110 0 -110 38 -3 37 -3 -2 -252 -3 -252 -35
-5 c-31 -4 -36 -9 -40 -40 -4 -31 -9 -35 -38 -38 -33 -3 -44 -16 -46 -55 -1
-17 -8 -23 -31 -25 -16 -2 -36 -11 -42 -20 -16 -19 -17 -96 -3 -123 10 -19 30
-19 841 -19 570 0 837 3 850 11 18 9 20 17 13 67 -8 68 -17 82 -55 82 -25 0
-29 4 -29 28 0 36 -16 52 -53 52 -31 0 -31 5 -1 79 8 19 12 36 10 38 -2 3 -10
-11 -17 -31 -12 -33 -13 -34 -26 -16 -9 12 -26 20 -44 20 l-29 0 0 250 0 250
28 0 c15 0 33 5 40 12 13 13 17 185 4 205 -6 10 -672 354 -683 352 -2 0 -157
-77 -344 -172z m664 -30 c172 -87 311 -161 308 -163 -3 -3 -140 63 -306 145
-165 83 -313 151 -327 151 -14 0 -158 -68 -320 -151 -162 -83 -299 -149 -306
-147 -6 2 132 77 308 166 175 89 321 160 324 159 3 -1 147 -73 319 -160z m-42
-254 c-159 -2 -415 -2 -570 0 -155 1 -26 2 288 2 314 0 440 -1 282 -2z m373
-63 c0 -7 -223 -9 -652 -8 l-653 3 650 5 c358 3 651 6 653 8 1 1 2 -2 2 -8z
m-1102 -57 c-21 -2 -57 -2 -80 0 -24 2 -7 4 37 4 44 0 63 -2 43 -4z m170 -43
c2 -25 1 -136 -3 -247 l-7 -203 -39 0 -39 0 0 84 0 84 38 10 37 11 -38 -2 -38
-2 0 153 c0 83 1 155 1 158 0 3 19 4 43 2 l42 -3 3 -45z m172 44 c-59 -8 -138
-8 -133 -1 2 4 39 6 81 6 42 -1 66 -3 52 -5z m150 -244 l0 -250 -38 0 -39 0
-6 188 c-4 103 -7 215 -7 250 l0 62 45 0 45 0 0 -250z m128 243 l-78 -4 -2
-247 -3 -247 -2 240 c-2 132 -1 245 1 252 4 9 28 12 83 11 l78 -2 -77 -3z
m200 -243 l-3 -250 -40 0 -40 0 -3 250 -3 250 46 0 46 0 -3 -250z m160 243
c-21 -2 -57 -2 -80 0 -24 2 -7 4 37 4 44 0 63 -2 43 -4z m122 -543 c0 -7 -225
-10 -656 -10 -434 0 -653 3 -649 10 9 14 1305 14 1305 0z m-1280 -98 c3 -2
-18 -2 -47 -1 -49 4 -52 3 -56 -21 -3 -21 -4 -20 -6 7 -1 30 1 32 37 35 32 3
48 -2 72 -20z m1360 17 c0 -10 -29 -19 -62 -19 -23 0 -28 3 -20 13 10 12 82
17 82 6z m-1464 -90 c5 -8 -6 -10 -36 -7 -41 4 -42 3 -38 -24 3 -15 1 -28 -4
-28 -4 0 -8 16 -8 35 0 34 1 35 39 35 22 0 43 -5 47 -11z m1539 1 c-28 -12
-65 -12 -65 0 0 6 19 10 43 9 32 0 37 -2 22 -9z"/>
<path d="M1190 860 c-18 -12 -2 -12 25 0 13 6 15 9 5 9 -8 0 -22 -4 -30 -9z"/>
<path d="M1510 890 c0 -4 11 -10 25 -12 14 -3 25 -2 25 2 0 4 -11 10 -25 12
-14 3 -25 2 -25 -2z"/>
<path d="M2550 1563 c0 -4 34 -108 76 -230 l76 -223 52 0 51 0 42 118 c22 64
59 168 82 230 l40 112 -48 0 -49 0 -58 -172 -57 -173 -57 170 -57 170 -46 3
c-26 2 -47 -1 -47 -5z"/>
<path d="M3010 1529 l0 -40 43 3 c41 3 42 4 45 41 l3 37 -45 0 -46 0 0 -41z"/>
<path d="M5188 1536 c-32 -17 -38 -26 -38 -53 0 -26 -4 -33 -20 -33 -16 0 -20
-7 -20 -35 0 -28 4 -35 20 -35 19 0 20 -7 20 -111 0 -61 4 -119 10 -129 13
-24 66 -42 107 -34 30 6 33 10 33 40 0 31 -3 34 -30 34 l-30 0 0 100 0 100 31
0 c28 0 30 2 27 33 -2 27 -8 33 -30 35 -27 3 -28 6 -28 58 0 30 -3 54 -7 53
-5 -1 -25 -11 -45 -23z"/>
<path d="M3010 1281 l0 -171 45 0 45 0 -2 168 -3 167 -42 3 -43 3 0 -170z"/>
<path d="M3190 1280 l0 -170 44 0 44 0 4 121 c3 107 5 122 23 135 11 8 30 12
45 9 22 -5 27 -1 37 26 7 18 10 36 7 40 -11 18 -77 9 -101 -13 l-23 -21 0 21
c0 19 -6 22 -40 22 l-40 0 0 -170z"/>
<path d="M3489 1427 c-47 -31 -69 -80 -69 -150 0 -110 55 -171 155 -171 57 0
107 23 132 60 14 22 14 27 2 35 -26 16 -73 10 -87 -11 -13 -22 -51 -26 -82
-10 -19 10 -43 64 -33 74 4 3 55 6 115 6 l108 0 0 33 c-1 49 -35 114 -72 137
-47 28 -124 27 -169 -3z m131 -57 c11 -11 20 -29 20 -40 0 -18 -7 -20 -65 -20
-58 0 -65 2 -65 20 0 28 35 60 65 60 14 0 34 -9 45 -20z"/>
<path d="M3800 1280 l0 -170 39 0 39 0 4 121 c4 112 6 123 27 140 28 23 54 24
75 3 13 -12 16 -40 16 -140 l0 -124 45 0 45 0 0 118 c0 105 2 121 20 140 24
26 52 28 74 6 13 -12 16 -40 16 -140 l0 -124 45 0 45 0 0 130 c0 138 -10 179
-49 200 -34 17 -96 12 -132 -13 l-33 -22 -23 22 c-28 29 -95 31 -140 4 -31
-19 -31 -19 -36 0 -4 14 -14 19 -41 19 l-36 0 0 -170z"/>
<path d="M4429 1427 c-47 -31 -69 -80 -69 -150 0 -110 55 -171 155 -171 57 0
107 23 132 60 14 22 14 27 2 35 -26 16 -73 10 -87 -11 -13 -22 -51 -26 -82
-10 -19 10 -43 64 -33 74 4 3 55 6 115 6 l108 0 0 33 c-1 49 -35 114 -72 137
-47 28 -124 27 -169 -3z m131 -57 c11 -11 20 -29 20 -40 0 -18 -7 -20 -65 -20
-58 0 -65 2 -65 20 0 28 35 60 65 60 14 0 34 -9 45 -20z"/>
<path d="M4747 1443 c-4 -3 -7 -80 -7 -170 l0 -163 44 0 44 0 4 121 c3 113 5
122 27 140 29 24 63 24 84 1 14 -15 17 -41 17 -140 l0 -122 45 0 45 0 0 125
c0 142 -13 189 -55 205 -46 17 -100 12 -139 -15 l-36 -24 0 24 c0 22 -5 25
-33 25 -19 0 -37 -3 -40 -7z"/>
<path d="M2600 690 l0 -230 103 0 c196 0 256 22 277 101 14 49 -7 103 -49 126
l-29 17 29 34 c34 38 39 93 13 131 -29 41 -72 51 -214 51 l-130 0 0 -230z
m264 144 c9 -8 16 -26 16 -39 0 -43 -24 -55 -111 -55 l-79 0 0 55 0 55 79 0
c59 0 84 -4 95 -16z m18 -194 c23 -29 23 -52 -1 -81 -17 -21 -29 -24 -105 -28
l-86 -3 0 72 0 73 87 -6 c74 -4 90 -8 105 -27z"/>
<path d="M4550 885 c0 -34 1 -35 40 -35 39 0 40 1 40 35 0 34 -1 35 -40 35
-39 0 -40 -1 -40 -35z"/>
<path d="M1836 811 c5 -4 51 -19 101 -31 51 -13 98 -27 103 -30 17 -10 -6 -59
-32 -70 -23 -10 -23 -10 2 -7 18 1 28 12 39 40 7 20 12 40 9 43 -3 2 -45 15
-94 28 -130 34 -138 36 -128 27z"/>
<path d="M3123 786 c-17 -8 -39 -28 -47 -44 -15 -29 -15 -30 16 -36 24 -5 36
-1 50 14 21 22 77 27 96 8 7 -7 12 -22 12 -34 0 -19 -8 -24 -57 -34 -113 -22
-143 -45 -143 -110 0 -79 99 -118 178 -70 l34 21 5 -21 c4 -16 14 -20 45 -20
34 0 39 2 32 18 -4 9 -8 72 -8 140 -1 119 -2 123 -28 149 -23 23 -38 28 -90
30 -40 2 -75 -2 -95 -11z m123 -230 c-8 -32 -50 -52 -84 -40 -22 8 -27 15 -27
44 0 33 2 35 55 51 l55 17 3 -25 c2 -14 1 -35 -2 -47z"/>
<path d="M3546 775 c-34 -23 -36 -23 -36 -5 0 17 -7 20 -40 20 l-40 0 0 -165
0 -165 39 0 39 0 4 121 c4 112 6 123 27 140 32 26 76 24 95 -3 12 -17 16 -50
16 -140 l0 -118 40 0 40 0 0 130 c0 79 -5 139 -12 155 -26 57 -111 72 -172 30z"/>
<path d="M3890 782 c-105 -56 -105 -253 0 -307 41 -21 128 -19 166 4 36 22 69
82 51 93 -27 17 -63 8 -85 -22 -27 -36 -72 -40 -101 -11 -38 38 -40 143 -5
182 25 28 78 25 102 -6 16 -20 25 -23 56 -18 20 3 36 10 36 14 0 5 -15 26 -34
46 -30 33 -39 37 -92 40 -44 3 -68 0 -94 -15z"/>
<path d="M4243 786 c-17 -8 -39 -28 -47 -44 -15 -29 -15 -30 16 -36 24 -5 36
-1 50 14 21 22 77 27 96 8 7 -7 12 -22 12 -34 0 -19 -8 -24 -57 -34 -113 -22
-143 -45 -143 -110 0 -79 99 -118 178 -70 l34 21 5 -21 c4 -16 14 -20 45 -20
34 0 39 2 32 18 -4 9 -8 72 -8 140 -1 119 -2 123 -28 149 -23 23 -38 28 -90
30 -40 2 -75 -2 -95 -11z m123 -230 c-8 -32 -50 -52 -84 -40 -22 8 -27 15 -27
44 0 33 2 35 55 51 l55 17 3 -25 c2 -14 1 -35 -2 -47z"/>
<path d="M4835 774 c-24 -26 -25 -26 -25 -5 0 18 -6 21 -40 21 l-40 0 0 -165
0 -165 39 0 38 0 5 110 c7 131 21 165 70 158 26 -4 32 -1 43 26 15 36 7 46
-38 46 -18 0 -37 -10 -52 -26z"/>
<path d="M5045 781 c-62 -38 -92 -102 -81 -177 13 -97 63 -144 155 -144 61 0
111 25 129 64 11 24 9 26 -25 32 -31 6 -39 4 -51 -15 -11 -15 -25 -21 -52 -21
-41 0 -63 19 -74 63 l-6 27 115 0 115 0 0 33 c0 49 -39 118 -80 139 -45 23
-107 23 -145 -1z m124 -67 c36 -46 29 -54 -49 -54 -65 0 -70 1 -70 22 0 58 81
80 119 32z"/>
<path d="M4550 625 l0 -165 40 0 40 0 0 165 0 165 -40 0 -40 0 0 -165z"/>
</g>
</svg>
