<svg width="52" height="35" viewBox="0 0 52 35" fill="none" xmlns="http://www.w3.org/2000/svg">
<rect x="0.5" y="0.5" width="50.04" height="33.9989" rx="5.5" fill="#1F72CD" stroke="#D9D9D9"/>
<path fill-rule="evenodd" clip-rule="evenodd" d="M9.15029 12.3955L4.37488 22.9633H10.0917L10.8004 21.2784H12.4204L13.1291 22.9633H19.4218V21.6773L19.9825 22.9633H23.2375L23.7982 21.6501V22.9633H36.8852L38.4765 21.3221L39.9665 22.9633L46.6883 22.9769L41.8978 17.7089L46.6883 12.3955H40.0708L38.5217 14.0064L37.0786 12.3955H22.8417L21.6192 15.1232L20.368 12.3955H14.6631V13.6378L14.0285 12.3955H9.15029ZM28.693 13.8962H36.2081L38.5067 16.379L40.8793 13.8962H43.1778L39.6854 17.7074L43.1778 21.4748H40.775L38.4765 18.9631L36.0918 21.4748H28.693V13.8962ZM30.5488 16.8505V15.4662V15.4649H35.238L37.2841 17.6787L35.1474 19.9047H30.5488V18.3934H34.6486V16.8505H30.5488ZM10.2565 13.8962H13.0431L16.2106 21.0623V13.8962H19.2633L21.7099 19.0342L23.9646 13.8962H27.0021V21.4793H25.1538L25.1388 15.5372L22.4443 21.4793H20.791L18.0814 15.5372V21.4793H14.2792L13.5584 19.7792H9.6641L8.94477 21.4778H6.90761L10.2565 13.8962ZM10.329 18.2076L11.6121 15.1792L12.8936 18.2076H10.329Z" fill="white"/>
</svg>
