<svg width="52" height="35" viewBox="0 0 52 35" fill="none" xmlns="http://www.w3.org/2000/svg">
<rect x="0.5" y="0.5" width="50.0417" height="34" rx="5.5" fill="white" stroke="#D9D9D9"/>
<path fill-rule="evenodd" clip-rule="evenodd" d="M12.1715 13.0274C12.857 13.0852 13.5425 12.6805 13.9709 12.1673C14.3922 11.6396 14.6707 10.9313 14.5993 10.2085C13.9923 10.2374 13.2426 10.6133 12.8142 11.1409C12.4215 11.5963 12.0859 12.3335 12.1715 13.0274ZM20.3259 22.337V11.0686H24.503C26.6594 11.0686 28.166 12.572 28.166 14.7693C28.166 16.9666 26.6308 18.4845 24.4459 18.4845H22.0538V22.337H20.3259ZM14.5921 13.1647C13.9882 13.1295 13.4372 13.3486 12.9921 13.5255C12.7057 13.6393 12.4631 13.7357 12.2786 13.7357C12.0715 13.7357 11.819 13.6342 11.5354 13.5201C11.1638 13.3707 10.739 13.1999 10.2936 13.2081C9.27249 13.2225 8.32282 13.808 7.80158 14.7404C6.73052 16.6052 7.5231 19.3663 8.55846 20.8842C9.06542 21.6359 9.67235 22.4598 10.4721 22.4309C10.8239 22.4175 11.077 22.3088 11.3389 22.1963C11.6405 22.0668 11.9537 21.9322 12.4428 21.9322C12.915 21.9322 13.2145 22.0632 13.5021 22.189C13.7755 22.3087 14.0381 22.4235 14.4278 22.4165C15.2561 22.402 15.7774 21.6648 16.2843 20.9131C16.8314 20.1063 17.0719 19.3189 17.1084 19.1994L17.1126 19.1856C17.1118 19.1847 17.105 19.1816 17.0931 19.176C16.9102 19.0913 15.5123 18.4435 15.4989 16.7064C15.4854 15.2484 16.6077 14.5096 16.7843 14.3933L16.7843 14.3933C16.7951 14.3863 16.8023 14.3815 16.8056 14.379C16.0916 13.3093 14.9777 13.1936 14.5921 13.1647ZM31.3221 22.4237C32.4075 22.4237 33.4142 21.8672 33.8712 20.9853H33.9069V22.337H35.5064V16.7281C35.5064 15.1018 34.2211 14.0538 32.2432 14.0538C30.4081 14.0538 29.0515 15.1163 29.0015 16.5763H30.5581C30.6866 15.8824 31.3221 15.4271 32.1932 15.4271C33.25 15.4271 33.8427 15.9258 33.8427 16.8437V17.4653L31.6863 17.5954C29.6798 17.7183 28.5945 18.5495 28.5945 19.9951C28.5945 21.4552 29.7155 22.4237 31.3221 22.4237ZM31.7861 21.0865C30.865 21.0865 30.2795 20.6384 30.2795 19.9518C30.2795 19.2434 30.8436 18.8314 31.9218 18.7664L33.8426 18.6435V19.2796C33.8426 20.3348 32.9571 21.0865 31.7861 21.0865ZM40.8116 22.7779C40.119 24.7511 39.3264 25.4016 37.6413 25.4016C37.5128 25.4016 37.0843 25.3872 36.9844 25.3583V24.0066C37.0915 24.0211 37.3557 24.0355 37.4913 24.0355C38.2554 24.0355 38.6838 23.7103 38.948 22.8646L39.1051 22.3659L36.1775 14.1622H37.984L40.019 20.8191H40.0547L42.0897 14.1622H43.8463L40.8116 22.7779ZM22.0537 12.5431H24.0458C25.5453 12.5431 26.4022 13.3526 26.4022 14.7765C26.4022 16.2005 25.5453 17.0172 24.0387 17.0172H22.0537V12.5431Z" fill="black"/>
</svg>
