<svg width="52" height="35" viewBox="0 0 52 35" fill="none" xmlns="http://www.w3.org/2000/svg">
<rect x="0.5" y="0.5" width="50.0417" height="34" rx="5.5" fill="white" stroke="#D9D9D9"/>
<path fill-rule="evenodd" clip-rule="evenodd" d="M37.3726 17.5944C37.3726 24.0897 32.1074 29.3552 25.6124 29.3552C19.1173 29.3552 13.8521 24.0897 13.8521 17.5944C13.8521 11.099 19.1173 5.8335 25.6124 5.8335C32.1074 5.8335 37.3726 11.099 37.3726 17.5944ZM28.4377 13.2248C30.0736 13.7866 31.2703 14.6278 31.0355 16.1933C30.865 17.3397 30.2272 17.8941 29.3797 18.0883C30.5424 18.6912 30.9386 19.8356 30.5704 21.2193C29.8713 23.2106 28.2096 23.3782 25.9994 22.962L25.4627 25.1026L24.1671 24.7805L24.6964 22.6686C24.3605 22.5855 24.0173 22.4966 23.6636 22.4017L23.1321 24.5239L21.838 24.2018L22.374 22.0568L19.7644 21.4009L20.4081 19.9229C20.4081 19.9229 21.3633 20.1751 21.3501 20.1567C21.717 20.2472 21.8801 20.0089 21.9443 19.8508L23.3986 14.041C23.4149 13.7667 23.3196 13.4211 22.7948 13.2902C22.8147 13.2763 21.8535 13.0571 21.8535 13.0571L22.1983 11.6784L24.8116 12.3233L25.3431 10.2026L26.6379 10.5247L26.1175 12.6034C26.4659 12.6821 26.8158 12.7623 27.1562 12.8468L27.6729 10.7813L28.9685 11.1034L28.4377 13.2248ZM25.3377 16.7624C26.2203 16.9964 28.1407 17.5055 28.4754 16.1705C28.8169 14.8047 26.9511 14.3922 26.0376 14.1902L26.0376 14.1902C25.9341 14.1673 25.8428 14.1471 25.7683 14.1285L25.1231 16.7066C25.1845 16.7218 25.2567 16.7409 25.3376 16.7624L25.3377 16.7624ZM24.3378 20.9132C25.3948 21.1916 27.7067 21.8006 28.0745 20.3296C28.451 18.8255 26.2096 18.3245 25.1159 18.08L25.1158 18.08C24.9936 18.0527 24.8858 18.0286 24.7975 18.0066L24.0859 20.848C24.1581 20.8659 24.2428 20.8881 24.3375 20.9131L24.3378 20.9132Z" fill="#F7931A"/>
</svg>
