<?xml version="1.0" encoding="UTF-8"?>
<svg xmlns="http://www.w3.org/2000/svg" xmlns:xlink="http://www.w3.org/1999/xlink" version="1.1" width="1400px" height="900px" style="shape-rendering:geometricPrecision; text-rendering:geometricPrecision; image-rendering:optimizeQuality; fill-rule:evenodd; clip-rule:evenodd">
  <g>
    <path style="opacity:0.916" fill="#030303" d="M 441.5,62.5 C 614.5,62.3333 787.5,62.5 960.5,63C 982.194,64.6991 998.027,75.1991 1008,94.5C 1010.44,99.933 1012.11,105.6 1013,111.5C 1013.67,336.833 1013.67,562.167 1013,787.5C 1009.34,809.494 997.173,824.66 976.5,833C 970.963,834.726 965.296,835.726 959.5,836C 786.833,836.667 614.167,836.667 441.5,836C 409.676,832.176 391.843,814.343 388,782.5C 387.333,560.5 387.333,338.5 388,116.5C 391.974,84.6928 409.807,66.6928 441.5,62.5 Z"></path>
  </g>
  <g>
    <path style="opacity:1" fill="#fdfdfd" d="M 1000.5,105.5 C 1001.5,333.483 1001.83,561.483 1001.5,789.5C 996.45,809.38 983.784,821.213 963.5,825C 787.5,825.667 611.5,825.667 435.5,825C 414.681,819.847 402.514,806.68 399,785.5C 398.333,560.5 398.333,335.5 399,110.5C 401.747,97.482 408.581,87.3153 419.5,80C 424.595,77.3919 429.928,75.3919 435.5,74C 611.5,73.3333 787.5,73.3333 963.5,74C 978.21,76.5672 989.543,84.0672 997.5,96.5C 998.358,99.6195 999.358,102.62 1000.5,105.5 Z"></path>
  </g>
  <g>
    <path style="opacity:1" fill="#f04148" d="M 944.5,112.5 C 781.507,111.168 618.507,111.168 455.5,112.5C 456.263,111.732 457.263,111.232 458.5,111C 619.833,110.333 781.167,110.333 942.5,111C 943.416,111.278 944.082,111.778 944.5,112.5 Z"></path>
  </g>
  <g>
    <path style="opacity:1" fill="#ed1c24" d="M 944.5,112.5 C 957.392,116.393 964.392,125.06 965.5,138.5C 965.831,163.006 965.498,187.339 964.5,211.5C 948.806,199.385 933.14,199.552 917.5,212C 902.852,231.223 904.518,248.89 922.5,265C 937.394,272.879 951.394,271.712 964.5,261.5C 965.499,322.998 965.832,384.664 965.5,446.5C 963.905,460.606 956.238,469.773 942.5,474C 781.5,474.667 620.5,474.667 459.5,474C 448.119,471.451 440.786,464.618 437.5,453.5C 436.169,345.84 436.169,238.173 437.5,130.5C 440.491,121.509 446.491,115.509 455.5,112.5C 618.507,111.168 781.507,111.168 944.5,112.5 Z"></path>
  </g>
  <g>
    <path style="opacity:1" fill="#ebe1e2" d="M 1000.5,105.5 C 1001.27,106.263 1001.77,107.263 1002,108.5C 1002.83,335.667 1002.67,562.667 1001.5,789.5C 1001.83,561.483 1001.5,333.483 1000.5,105.5 Z"></path>
  </g>
  <g>
    <path style="opacity:1" fill="#f04249" d="M 437.5,130.5 C 436.169,238.173 436.169,345.84 437.5,453.5C 436.778,453.082 436.278,452.416 436,451.5C 435.333,345.5 435.333,239.5 436,133.5C 436.232,132.263 436.732,131.263 437.5,130.5 Z"></path>
  </g>
  <g>
    <path style="opacity:1" fill="#d0c6c7" d="M 965.5,138.5 C 966.829,163.003 966.829,187.67 965.5,212.5C 964.893,212.376 964.56,212.043 964.5,211.5C 965.498,187.339 965.831,163.006 965.5,138.5 Z"></path>
  </g>
  <g>
    <path style="opacity:1" fill="#fefdfd" d="M 622.5,229.5 C 621.668,235.222 620.668,241.055 619.5,247C 619.57,247.765 619.903,248.265 620.5,248.5C 628.222,248.965 635.888,250.465 643.5,253C 644.833,253.667 645.833,254.667 646.5,256C 651.457,257.158 656.457,257.992 661.5,258.5C 666.573,260.435 671.906,261.768 677.5,262.5C 685.849,265.34 694.016,268.673 702,272.5C 704.064,271.409 706.231,271.242 708.5,272C 738.642,283.242 768.642,294.742 798.5,306.5C 798.918,307.222 799.584,307.722 800.5,308C 808.391,308.796 816.058,308.296 823.5,306.5C 833.827,305.367 844.16,304.367 854.5,303.5C 854.683,305.936 854.016,308.103 852.5,310C 853.38,311.356 853.714,312.856 853.5,314.5C 847.91,312.627 845.244,314.627 845.5,320.5C 843.032,319.25 840.699,319.417 838.5,321C 832.241,326.048 826.074,331.214 820,336.5C 819.51,337.793 819.343,339.127 819.5,340.5C 817.5,340.5 815.5,340.5 813.5,340.5C 813.778,342.346 813.111,343.68 811.5,344.5C 802.08,342.949 795.414,337.783 791.5,329C 771.794,328.73 752.127,327.73 732.5,326C 722.628,325.376 713.628,322.376 705.5,317C 680.128,316.577 654.628,314.41 629,310.5C 627.319,310.608 626.152,311.275 625.5,312.5C 622.833,312.5 620.167,312.5 617.5,312.5C 617.5,321.167 617.5,329.833 617.5,338.5C 616.853,339.274 616.52,340.274 616.5,341.5C 619.146,361.547 618.979,381.547 616,401.5C 611.616,412.396 603.782,419.062 592.5,421.5C 577.718,423.175 563.051,424.509 548.5,425.5C 540.156,425.612 531.822,425.945 523.5,426.5C 518.637,426.181 513.97,426.514 509.5,427.5C 506.729,427.421 504.063,427.921 501.5,429C 493.563,435.264 485.896,441.931 478.5,449C 475.331,449.978 472.497,449.478 470,447.5C 469.944,444.22 469.111,441.22 467.5,438.5C 469.593,436.444 470.926,433.944 471.5,431C 468.809,428.508 469.309,426.675 473,425.5C 476.552,418.618 480.885,412.284 486,406.5C 486.195,404.793 486.195,403.126 486,401.5C 487.892,400.87 489.559,399.87 491,398.5C 490.872,396.555 491.038,394.722 491.5,393C 495.98,392.157 500.646,391.824 505.5,392C 509.694,394.497 513.528,397.33 517,400.5C 532.905,392.365 549.738,387.365 567.5,385.5C 569.759,385.532 571.925,385.866 574,386.5C 571.218,377.476 568.384,368.309 565.5,359C 561.963,356.124 559.13,352.624 557,348.5C 552.561,338.017 549.061,327.351 546.5,316.5C 545.989,310.951 544.989,305.617 543.5,300.5C 542.431,294.487 542.431,288.487 543.5,282.5C 541.188,279.543 539.688,276.209 539,272.5C 538.287,262.468 538.621,252.468 540,242.5C 542.588,228.072 545.588,213.739 549,199.5C 552.349,197.549 555.849,195.882 559.5,194.5C 561.359,193.406 563.359,192.573 565.5,192C 566.696,191.346 566.696,190.846 565.5,190.5C 562.268,191.133 559.268,192.133 556.5,193.5C 548.254,195.178 539.92,196.345 531.5,197C 522.818,206.737 513.651,215.903 504,224.5C 501.819,228.222 500.319,232.222 499.5,236.5C 496.167,239.167 493.167,242.167 490.5,245.5C 486.673,247.123 482.673,248.123 478.5,248.5C 476.044,247.878 474.377,246.378 473.5,244C 475.429,240.401 477.763,237.067 480.5,234C 477.394,234.311 474.394,235.144 471.5,236.5C 468.818,236.923 467.652,235.923 468,233.5C 470.251,231.623 472.751,230.123 475.5,229C 480.675,223.124 486.175,217.624 492,212.5C 499.702,200.727 507.036,188.727 514,176.5C 517.408,173.547 520.908,170.713 524.5,168C 523.663,166.989 523.33,165.822 523.5,164.5C 541.903,159.753 560.57,156.42 579.5,154.5C 585.438,154.312 591.104,155.478 596.5,158C 601.917,160.79 607.084,163.957 612,167.5C 621.416,148.045 636.25,141.879 656.5,149C 666.945,157.654 671.112,168.82 669,182.5C 666.222,185.807 662.722,187.974 658.5,189C 655.167,193.667 651.833,198.333 648.5,203C 642.167,204.347 636,206.181 630,208.5C 627.333,208.833 625.333,207.833 624,205.5C 623.558,213.51 623.058,221.51 622.5,229.5 Z"></path>
  </g>
  <g>
    <path style="opacity:1" fill="#f35c5c" d="M 559.5,194.5 C 558.791,193.596 557.791,193.263 556.5,193.5C 559.268,192.133 562.268,191.133 565.5,190.5C 566.696,190.846 566.696,191.346 565.5,192C 563.359,192.573 561.359,193.406 559.5,194.5 Z"></path>
  </g>
  <g>
    <path style="opacity:1" fill="#f46363" d="M 499.5,236.5 C 497.5,240.5 494.5,243.5 490.5,245.5C 493.167,242.167 496.167,239.167 499.5,236.5 Z"></path>
  </g>
  <g>
    <path style="opacity:1" fill="#f46263" d="M 622.5,229.5 C 622.67,235.967 622.004,242.3 620.5,248.5C 619.903,248.265 619.57,247.765 619.5,247C 620.668,241.055 621.668,235.222 622.5,229.5 Z"></path>
  </g>
  <g>
    <path style="opacity:1" fill="#f3585a" d="M 490.5,245.5 C 487.033,248.995 483.033,249.995 478.5,248.5C 482.673,248.123 486.673,247.123 490.5,245.5 Z"></path>
  </g>
  <g>
    <path style="opacity:1" fill="#f46363" d="M 661.5,258.5 C 667.17,258.917 672.503,260.251 677.5,262.5C 671.906,261.768 666.573,260.435 661.5,258.5 Z"></path>
  </g>
  <g>
    <path style="opacity:1" fill="#d0c6c7" d="M 964.5,261.5 C 964.56,260.957 964.893,260.624 965.5,260.5C 966.832,322.665 966.832,384.665 965.5,446.5C 965.832,384.664 965.499,322.998 964.5,261.5 Z"></path>
  </g>
  <g>
    <path style="opacity:1" fill="#f35b5c" d="M 798.5,306.5 C 806.807,307.449 815.14,307.449 823.5,306.5C 816.058,308.296 808.391,308.796 800.5,308C 799.584,307.722 798.918,307.222 798.5,306.5 Z"></path>
  </g>
  <g>
    <path style="opacity:1" fill="#ef4147" d="M 625.5,312.5 C 623.393,313.468 621.059,313.802 618.5,313.5C 618.826,322.017 618.493,330.35 617.5,338.5C 617.5,329.833 617.5,321.167 617.5,312.5C 620.167,312.5 622.833,312.5 625.5,312.5 Z"></path>
  </g>
  <g>
    <path style="opacity:1" fill="#f35a5c" d="M 543.5,300.5 C 544.989,305.617 545.989,310.951 546.5,316.5C 544.496,311.475 543.496,306.142 543.5,300.5 Z"></path>
  </g>
  <g>
    <path style="opacity:1" fill="#f35c5d" d="M 592.5,421.5 C 580.856,423.851 569.023,425.518 557,426.5C 554.281,425.556 551.448,425.223 548.5,425.5C 563.051,424.509 577.718,423.175 592.5,421.5 Z"></path>
  </g>
  <g>
    <path style="opacity:1" fill="#f35d5e" d="M 509.5,427.5 C 513.97,426.514 518.637,426.181 523.5,426.5C 521.444,427.216 519.277,427.883 517,428.5C 514.619,427.565 512.119,427.232 509.5,427.5 Z"></path>
  </g>
  <g>
    <path style="opacity:1" fill="#363636" d="M 913.5,503.5 C 924.993,502.341 936.659,502.174 948.5,503C 950.382,503.198 952.048,503.698 953.5,504.5C 940.35,503.83 927.017,503.497 913.5,503.5 Z"></path>
  </g>
  <g>
    <path style="opacity:1" fill="#292929" d="M 495.5,503.5 C 476.5,503.5 457.5,503.5 438.5,503.5C 438.5,532.833 438.5,562.167 438.5,591.5C 456.5,591.5 474.5,591.5 492.5,591.5C 474.341,592.497 456.008,592.83 437.5,592.5C 437.5,562.5 437.5,532.5 437.5,502.5C 457.007,502.17 476.341,502.503 495.5,503.5 Z"></path>
  </g>
  <g>
    <path style="opacity:1" fill="#020202" d="M 495.5,503.5 C 511.252,508.667 516.752,519.334 512,535.5C 509.017,541.817 504.184,545.983 497.5,548C 509.491,549.325 514.824,555.992 513.5,568C 514.066,582.6 507.066,590.434 492.5,591.5C 474.5,591.5 456.5,591.5 438.5,591.5C 438.5,562.167 438.5,532.833 438.5,503.5C 457.5,503.5 476.5,503.5 495.5,503.5 Z"></path>
  </g>
  <g>
    <path style="opacity:1" fill="#2a2a2a" d="M 549.5,505.5 C 542.108,503.586 534.441,502.919 526.5,503.5C 526.5,527.167 526.5,550.833 526.5,574.5C 525.502,550.672 525.169,526.672 525.5,502.5C 533.5,502.5 541.5,502.5 549.5,502.5C 549.5,503.5 549.5,504.5 549.5,505.5 Z"></path>
  </g>
  <g>
    <path style="opacity:1" fill="#020202" d="M 549.5,505.5 C 549.034,526.9 549.534,548.233 551,569.5C 552.648,570.717 554.481,571.55 556.5,572C 562.5,572.667 568.5,572.667 574.5,572C 577.079,570.924 578.746,569.091 579.5,566.5C 580.497,545.673 580.831,524.673 580.5,503.5C 587.833,503.5 595.167,503.5 602.5,503.5C 602.795,528.526 602.462,553.526 601.5,578.5C 600.665,582.324 598.665,585.49 595.5,588C 578.339,595.065 560.672,596.398 542.5,592C 533.084,589.757 527.751,583.923 526.5,574.5C 526.5,550.833 526.5,527.167 526.5,503.5C 534.441,502.919 542.108,503.586 549.5,505.5 Z"></path>
  </g>
  <g>
    <path style="opacity:1" fill="#2a2a2a" d="M 601.5,578.5 C 602.462,553.526 602.795,528.526 602.5,503.5C 595.167,503.5 587.833,503.5 580.5,503.5C 580.831,524.673 580.497,545.673 579.5,566.5C 579.5,545.167 579.5,523.833 579.5,502.5C 587.5,502.5 595.5,502.5 603.5,502.5C 603.667,526.836 603.5,551.169 603,575.5C 602.768,576.737 602.268,577.737 601.5,578.5 Z"></path>
  </g>
  <g>
    <path style="opacity:1" fill="#282828" d="M 657.5,503.5 C 644.5,503.5 631.5,503.5 618.5,503.5C 618.5,532.833 618.5,562.167 618.5,591.5C 625.833,591.5 633.167,591.5 640.5,591.5C 640.167,569.49 640.5,547.49 641.5,525.5C 642.298,525.957 642.631,526.624 642.5,527.5C 641.503,548.994 641.169,570.66 641.5,592.5C 633.5,592.5 625.5,592.5 617.5,592.5C 617.5,562.5 617.5,532.5 617.5,502.5C 631.01,502.171 644.344,502.504 657.5,503.5 Z"></path>
  </g>
  <g>
    <path style="opacity:1" fill="#020202" d="M 657.5,503.5 C 665.359,523.76 673.359,544.093 681.5,564.5C 682.11,565.391 682.443,566.391 682.5,567.5C 682.281,568.675 682.614,569.675 683.5,570.5C 684.5,548.177 684.833,525.843 684.5,503.5C 692.253,503.201 699.92,503.534 707.5,504.5C 707.5,533.833 707.5,563.167 707.5,592.5C 694.167,592.5 680.833,592.5 667.5,592.5C 659.912,571.412 651.912,550.412 643.5,529.5C 643.672,528.508 643.338,527.842 642.5,527.5C 642.631,526.624 642.298,525.957 641.5,525.5C 640.5,547.49 640.167,569.49 640.5,591.5C 633.167,591.5 625.833,591.5 618.5,591.5C 618.5,562.167 618.5,532.833 618.5,503.5C 631.5,503.5 644.5,503.5 657.5,503.5 Z"></path>
  </g>
  <g>
    <path style="opacity:1" fill="#2a2a2a" d="M 707.5,504.5 C 699.92,503.534 692.253,503.201 684.5,503.5C 684.833,525.843 684.5,548.177 683.5,570.5C 682.614,569.675 682.281,568.675 682.5,567.5C 683.497,546.34 683.831,525.007 683.5,503.5C 687.319,502.834 691.319,502.501 695.5,502.5C 699.893,502.509 703.893,503.176 707.5,504.5 Z"></path>
  </g>
  <g>
    <path style="opacity:1" fill="#292929" d="M 777.5,503.5 C 758.66,503.57 739.66,503.57 720.5,503.5C 720.5,532.833 720.5,562.167 720.5,591.5C 738.833,591.5 757.167,591.5 775.5,591.5C 757.007,592.497 738.341,592.83 719.5,592.5C 719.5,562.5 719.5,532.5 719.5,502.5C 739.007,502.17 758.341,502.503 777.5,503.5 Z"></path>
  </g>
  <g>
    <path style="opacity:1" fill="#020202" d="M 777.5,503.5 C 790.916,504.746 798.749,512.08 801,525.5C 801.667,539.5 801.667,553.5 801,567.5C 798.743,582.26 790.243,590.26 775.5,591.5C 757.167,591.5 738.833,591.5 720.5,591.5C 720.5,562.167 720.5,532.833 720.5,503.5C 739.66,503.57 758.66,503.57 777.5,503.5 Z"></path>
  </g>
  <g>
    <path style="opacity:1" fill="#282828" d="M 879.5,503.5 C 857.833,503.5 836.167,503.5 814.5,503.5C 814.5,532.833 814.5,562.167 814.5,591.5C 836.167,591.5 857.833,591.5 879.5,591.5C 857.673,592.497 835.673,592.831 813.5,592.5C 813.5,562.5 813.5,532.5 813.5,502.5C 835.673,502.169 857.673,502.503 879.5,503.5 Z"></path>
  </g>
  <g>
    <path style="opacity:1" fill="#000000" d="M 879.5,503.5 C 879.5,509.833 879.5,516.167 879.5,522.5C 865.5,522.5 851.5,522.5 837.5,522.5C 837.179,528.026 837.512,533.36 838.5,538.5C 850.735,539.185 863.068,539.852 875.5,540.5C 875.5,545.5 875.5,550.5 875.5,555.5C 862.456,554.853 849.789,555.52 837.5,557.5C 837.5,562.5 837.5,567.5 837.5,572.5C 839.218,573.224 841.052,573.891 843,574.5C 854.894,574.006 867.061,573.673 879.5,573.5C 879.5,579.5 879.5,585.5 879.5,591.5C 857.833,591.5 836.167,591.5 814.5,591.5C 814.5,562.167 814.5,532.833 814.5,503.5C 836.167,503.5 857.833,503.5 879.5,503.5 Z"></path>
  </g>
  <g>
    <path style="opacity:1" fill="#050505" d="M 913.5,503.5 C 927.017,503.497 940.35,503.83 953.5,504.5C 954.93,504.421 956.264,504.754 957.5,505.5C 958.833,507.5 960.5,509.167 962.5,510.5C 963.127,511.417 963.461,512.417 963.5,513.5C 963.858,516.689 964.525,519.689 965.5,522.5C 965.5,525.167 965.5,527.833 965.5,530.5C 958.167,530.5 950.833,530.5 943.5,530.5C 944.275,526.818 942.941,524.318 939.5,523C 932.06,522.072 924.726,522.406 917.5,524C 914.134,530.268 915.8,534.601 922.5,537C 932.833,538 943.167,539 953.5,540C 957.196,541.455 960.696,543.288 964,545.5C 966.194,548.554 967.861,551.888 969,555.5C 973.107,577.375 964.273,590.208 942.5,594C 932.793,594.786 923.126,594.453 913.5,593C 901.289,591.287 894.289,584.454 892.5,572.5C 892.5,569.5 892.5,566.5 892.5,563.5C 900.253,563.201 907.92,563.534 915.5,564.5C 917.287,571.993 922.12,574.66 930,572.5C 934.585,572.569 939.085,572.069 943.5,571C 946.916,565.536 945.916,561.203 940.5,558C 931.894,556.79 923.227,556.123 914.5,556C 899.484,553.488 891.818,544.654 891.5,529.5C 889.883,513.125 897.216,504.458 913.5,503.5 Z"></path>
  </g>
  <g>
    <path style="opacity:1" fill="#ded4d5" d="M 683.5,503.5 C 683.831,525.007 683.497,546.34 682.5,567.5C 682.443,566.391 682.11,565.391 681.5,564.5C 682.167,544.167 682.833,523.833 683.5,503.5 Z"></path>
  </g>
  <g>
    <path style="opacity:1" fill="#7d7b7b" d="M 963.5,513.5 C 965.265,516.123 965.932,519.123 965.5,522.5C 964.525,519.689 963.858,516.689 963.5,513.5 Z"></path>
  </g>
  <g>
    <path style="opacity:1" fill="#faf9f9" d="M 461.5,520.5 C 469.507,520.334 477.507,520.5 485.5,521C 488.901,522.32 490.235,524.82 489.5,528.5C 490.15,532.363 488.817,535.196 485.5,537C 477.507,537.5 469.507,537.666 461.5,537.5C 461.5,531.833 461.5,526.167 461.5,520.5 Z"></path>
  </g>
  <g>
    <path style="opacity:1" fill="#d5cbcc" d="M 771.5,525.5 C 762.5,525.5 753.5,525.5 744.5,525.5C 744.5,540.167 744.5,554.833 744.5,569.5C 752.167,569.5 759.833,569.5 767.5,569.5C 759.684,570.492 751.684,570.826 743.5,570.5C 743.5,555.167 743.5,539.833 743.5,524.5C 753.015,524.173 762.348,524.506 771.5,525.5 Z"></path>
  </g>
  <g>
    <path style="opacity:1" fill="#fefdfd" d="M 771.5,525.5 C 774.091,526.254 775.924,527.921 777,530.5C 777.667,540.833 777.667,551.167 777,561.5C 775.459,566.216 772.292,568.883 767.5,569.5C 759.833,569.5 752.167,569.5 744.5,569.5C 744.5,554.833 744.5,540.167 744.5,525.5C 753.5,525.5 762.5,525.5 771.5,525.5 Z"></path>
  </g>
  <g>
    <path style="opacity:1" fill="#cec4c5" d="M 642.5,527.5 C 643.338,527.842 643.672,528.508 643.5,529.5C 642.833,550.5 642.167,571.5 641.5,592.5C 641.169,570.66 641.503,548.994 642.5,527.5 Z"></path>
  </g>
  <g>
    <path style="opacity:1" fill="#272827" d="M 838.5,538.5 C 851.212,537.854 863.545,538.52 875.5,540.5C 863.068,539.852 850.735,539.185 838.5,538.5 Z"></path>
  </g>
  <g>
    <path style="opacity:1" fill="#2a2a2a" d="M 875.5,555.5 C 863.167,556.167 850.833,556.833 838.5,557.5C 838.167,557.5 837.833,557.5 837.5,557.5C 849.789,555.52 862.456,554.853 875.5,555.5 Z"></path>
  </g>
  <g>
    <path style="opacity:1" fill="#dcd2d3" d="M 485.5,556.5 C 477.833,556.5 470.167,556.5 462.5,556.5C 462.5,561.5 462.5,566.5 462.5,571.5C 470.167,571.5 477.833,571.5 485.5,571.5C 477.684,572.492 469.684,572.826 461.5,572.5C 461.5,566.833 461.5,561.167 461.5,555.5C 469.684,555.174 477.684,555.508 485.5,556.5 Z"></path>
  </g>
  <g>
    <path style="opacity:1" fill="#fdfcfc" d="M 485.5,556.5 C 488.94,557.449 490.274,559.782 489.5,563.5C 489.333,565.167 489.167,566.833 489,568.5C 488.578,570.426 487.411,571.426 485.5,571.5C 477.833,571.5 470.167,571.5 462.5,571.5C 462.5,566.5 462.5,561.5 462.5,556.5C 470.167,556.5 477.833,556.5 485.5,556.5 Z"></path>
  </g>
  <g>
    <path style="opacity:1" fill="#cfc6c6" d="M 837.5,557.5 C 837.833,557.5 838.167,557.5 838.5,557.5C 838.5,562.167 838.5,566.833 838.5,571.5C 852.344,571.171 866.01,571.504 879.5,572.5C 865.5,572.5 851.5,572.5 837.5,572.5C 837.5,567.5 837.5,562.5 837.5,557.5 Z"></path>
  </g>
  <g>
    <path style="opacity:1" fill="#343434" d="M 915.5,564.5 C 907.92,563.534 900.253,563.201 892.5,563.5C 892.5,566.5 892.5,569.5 892.5,572.5C 891.521,569.375 891.187,566.042 891.5,562.5C 899.903,561.866 907.903,562.533 915.5,564.5 Z"></path>
  </g>
  <g>
    <path style="opacity:1" fill="#272827" d="M 837.5,572.5 C 851.5,572.5 865.5,572.5 879.5,572.5C 879.5,572.833 879.5,573.167 879.5,573.5C 867.061,573.673 854.894,574.006 843,574.5C 841.052,573.891 839.218,573.224 837.5,572.5 Z"></path>
  </g>
  <g>
    <path style="opacity:1" fill="#272827" d="M 483.5,744.5 C 482.501,700.336 482.168,656.003 482.5,611.5C 467.833,611.5 453.167,611.5 438.5,611.5C 438.5,669.5 438.5,727.5 438.5,785.5C 475.573,785.827 512.573,785.493 549.5,784.5C 512.515,786.494 475.182,787.16 437.5,786.5C 437.5,727.833 437.5,669.167 437.5,610.5C 452.833,610.5 468.167,610.5 483.5,610.5C 483.5,655.167 483.5,699.833 483.5,744.5 Z"></path>
  </g>
  <g>
    <path style="opacity:1" fill="#282828" d="M 569.5,610.5 C 585.5,610.5 601.5,610.5 617.5,610.5C 617.5,669.167 617.5,727.833 617.5,786.5C 601.5,786.5 585.5,786.5 569.5,786.5C 569.5,727.833 569.5,669.167 569.5,610.5 Z"></path>
  </g>
  <g>
    <path style="opacity:1" fill="#000000" d="M 483.5,744.5 C 505.5,744.5 527.5,744.5 549.5,744.5C 549.5,757.833 549.5,771.167 549.5,784.5C 512.573,785.493 475.573,785.827 438.5,785.5C 438.5,727.5 438.5,669.5 438.5,611.5C 453.167,611.5 467.833,611.5 482.5,611.5C 482.168,656.003 482.501,700.336 483.5,744.5 Z"></path>
  </g>
  <g>
    <path style="opacity:1" fill="#000000" d="M 570.5,611.5 C 585.833,611.5 601.167,611.5 616.5,611.5C 616.5,669.5 616.5,727.5 616.5,785.5C 601.167,785.5 585.833,785.5 570.5,785.5C 570.5,727.5 570.5,669.5 570.5,611.5 Z"></path>
  </g>
  <g>
    <path style="opacity:1" fill="#020202" d="M 796.5,660.5 C 796.5,662.167 796.5,663.833 796.5,665.5C 781.167,665.5 765.833,665.5 750.5,665.5C 750.231,658.087 746.565,653.587 739.5,652C 727.539,650.496 715.539,650.162 703.5,651C 695.67,651.814 690.837,655.981 689,663.5C 687.066,686.49 687.066,709.49 689,732.5C 689.386,740.531 693.22,746.031 700.5,749C 714.269,751.263 727.935,750.93 741.5,748C 744.04,745.795 746.207,743.295 748,740.5C 749.982,733.978 751.149,727.311 751.5,720.5C 741.347,719.506 731.014,719.172 720.5,719.5C 720.5,709.5 720.5,699.5 720.5,689.5C 746.167,689.5 771.833,689.5 797.5,689.5C 797.667,705.17 797.5,720.837 797,736.5C 797.598,751.276 793.098,764.109 783.5,775C 771.124,783.181 757.458,787.515 742.5,788C 721.371,789.331 700.371,788.331 679.5,785C 662.363,782.17 650.197,773.003 643,757.5C 640.536,748.644 638.869,739.644 638,730.5C 637.333,712.167 637.333,693.833 638,675.5C 638.804,662.758 641.47,650.425 646,638.5C 654.044,625.045 665.877,616.878 681.5,614C 710.581,609.071 739.581,609.404 768.5,615C 783.316,619.482 792.15,629.315 795,644.5C 796.095,649.78 796.595,655.113 796.5,660.5 Z"></path>
  </g>
  <g>
    <path style="opacity:1" fill="#020202" d="M 921.5,757.5 C 911.355,756.168 900.855,755.501 890,755.5C 879.328,755.5 868.828,755.833 858.5,756.5C 857.662,756.842 857.328,757.508 857.5,758.5C 854.798,767.595 852.131,776.595 849.5,785.5C 833.658,785.83 817.991,785.496 802.5,784.5C 819.009,727.143 835.842,669.809 853,612.5C 864.942,611.177 877.109,610.51 889.5,610.5C 901.74,610.505 913.907,610.838 926,611.5C 943.326,669.807 960.493,728.14 977.5,786.5C 961.5,786.5 945.5,786.5 929.5,786.5C 926.935,776.725 924.268,767.059 921.5,757.5 Z"></path>
  </g>
  <g>
    <path style="opacity:1" fill="#f9f8f8" d="M 910.5,720.5 C 896.873,722.482 882.873,723.149 868.5,722.5C 873.134,703.039 878.3,683.706 884,664.5C 885.547,658.627 887.547,652.96 890,647.5C 897.108,671.767 903.941,696.101 910.5,720.5 Z"></path>
  </g>
  <g>
    <path style="opacity:1" fill="#2d2d2d" d="M 796.5,660.5 C 797.461,662.265 797.795,664.265 797.5,666.5C 781.658,666.83 765.991,666.496 750.5,665.5C 765.833,665.5 781.167,665.5 796.5,665.5C 796.5,663.833 796.5,662.167 796.5,660.5 Z"></path>
  </g>
  <g>
    <path style="opacity:1" fill="#272827" d="M 797.5,689.5 C 771.833,689.5 746.167,689.5 720.5,689.5C 720.5,699.5 720.5,709.5 720.5,719.5C 731.014,719.172 741.347,719.506 751.5,720.5C 740.833,720.5 730.167,720.5 719.5,720.5C 719.5,709.833 719.5,699.167 719.5,688.5C 745.672,688.169 771.672,688.502 797.5,689.5 Z"></path>
  </g>
  <g>
    <path style="opacity:1" fill="#2a2a2a" d="M 910.5,720.5 C 911.404,721.209 911.737,722.209 911.5,723.5C 896.99,723.829 882.657,723.496 868.5,722.5C 882.873,723.149 896.873,722.482 910.5,720.5 Z"></path>
  </g>
  <g>
    <path style="opacity:1" fill="#282828" d="M 858.5,756.5 C 868.828,755.833 879.328,755.5 890,755.5C 900.855,755.501 911.355,756.168 921.5,757.5C 920.833,757.167 920.167,756.833 919.5,756.5C 899.167,756.5 878.833,756.5 858.5,756.5 Z"></path>
  </g>
  <g>
    <path style="opacity:1" fill="#ccc2c3" d="M 858.5,756.5 C 878.833,756.5 899.167,756.5 919.5,756.5C 898.931,757.178 878.265,757.844 857.5,758.5C 857.328,757.508 857.662,756.842 858.5,756.5 Z"></path>
  </g>
  <g>
    <path style="opacity:1" fill="#2a2a2a" d="M 802.5,784.5 C 817.991,785.496 833.658,785.83 849.5,785.5C 833.662,786.827 817.662,786.827 801.5,785.5C 801.624,784.893 801.957,784.56 802.5,784.5 Z"></path>
  </g>
</svg>
