<?xml version="1.0" standalone="no"?>
<!DOCTYPE svg PUBLIC "-//W3C//DTD SVG 20010904//EN"
 "http://www.w3.org/TR/2001/REC-SVG-20010904/DTD/svg10.dtd">
<svg version="1.0" xmlns="http://www.w3.org/2000/svg"
 width="614.000000pt" height="438.000000pt" viewBox="0 0 614.000000 438.000000"
 preserveAspectRatio="xMidYMid meet">

<g transform="translate(0.000000,438.000000) scale(0.100000,-0.100000)"
fill="#000000" stroke="none">
<path d="M2805 2523 c-10 -54 -20 -103 -22 -109 -2 -7 -38 -13 -82 -16 -61 -4
-88 -10 -122 -30 -96 -57 -148 -149 -156 -277 -9 -132 21 -185 105 -185 63 1
112 32 162 102 45 63 47 61 21 -23 -10 -33 -17 -63 -14 -67 2 -5 24 -8 48 -8
38 0 45 3 50 23 14 64 125 658 125 672 0 11 -11 15 -48 15 l-48 0 -19 -97z
m-43 -209 c19 -18 -60 -208 -110 -266 -92 -104 -155 -51 -118 100 19 78 55
134 99 156 31 15 118 22 129 10z"/>
<path d="M3178 2592 c-51 -6 -76 -73 -40 -105 54 -49 137 18 102 82 -11 22
-26 28 -62 23z"/>
<path d="M4862 2399 c-39 -8 -95 -59 -122 -109 -23 -43 -25 -31 -5 34 8 27 15
53 15 58 0 4 -21 8 -47 8 l-48 0 -43 -232 c-25 -136 -39 -235 -34 -240 5 -5
27 -8 48 -6 36 3 39 5 46 43 17 93 32 144 63 210 37 82 81 133 123 141 26 5
30 11 36 52 3 25 5 46 4 47 -2 1 -18 -2 -36 -6z"/>
<path d="M1632 2378 c-24 -11 -61 -43 -82 -69 -52 -66 -74 -136 -75 -234 0
-91 14 -124 65 -150 37 -19 155 -21 223 -5 46 12 47 13 47 52 0 37 -2 40 -22
33 -51 -15 -167 -18 -184 -4 -23 19 -36 58 -29 90 6 25 11 27 73 34 147 16
232 75 232 161 0 56 -12 79 -50 99 -44 23 -146 20 -198 -7z m129 -58 c40 -22
19 -92 -33 -109 -44 -14 -138 -25 -138 -17 0 15 39 82 57 98 37 34 82 45 114
28z"/>
<path d="M3602 2370 c-23 -16 -54 -48 -68 -70 -15 -22 -28 -39 -30 -37 -2 2 3
27 11 57 8 30 15 58 15 63 0 4 -22 7 -48 7 l-48 0 -38 -207 c-21 -115 -41
-223 -44 -241 l-4 -33 48 3 49 3 17 86 c36 184 162 359 223 309 21 -18 19 -58
-15 -230 -16 -84 -30 -156 -30 -161 0 -5 20 -9 45 -9 57 0 55 -4 95 212 34
185 33 226 -7 258 -41 32 -120 28 -171 -10z"/>
<path d="M4167 2388 c-54 -15 -139 -97 -168 -160 -20 -45 -24 -69 -24 -160 0
-104 1 -108 28 -135 23 -23 36 -28 77 -27 58 1 102 30 160 107 19 25 36 45 37
43 2 -2 -5 -31 -16 -66 -11 -35 -18 -67 -15 -72 3 -4 23 -8 45 -8 47 0 48 2
74 145 10 55 28 151 40 213 14 73 18 115 11 119 -18 11 -210 12 -249 1z m143
-90 c-1 -41 -49 -161 -86 -215 -39 -56 -81 -93 -108 -93 -54 0 -60 128 -9 228
37 74 78 102 149 102 49 0 54 -2 54 -22z"/>
<path d="M3106 2373 c-7 -26 -86 -438 -86 -452 0 -6 18 -11 45 -11 56 0 53 -5
89 191 15 81 33 179 40 218 l14 71 -48 0 c-38 0 -50 -4 -54 -17z"/>
<path d="M2022 2161 l-2 -39 63 -4 c34 -1 88 -2 120 0 l57 3 0 39 0 40 -118 0
-119 0 -1 -39z"/>
</g>
</svg>
