<?xml version="1.0" encoding="UTF-8"?>
<svg xmlns="http://www.w3.org/2000/svg" xmlns:xlink="http://www.w3.org/1999/xlink" version="1.1" width="3840px" height="2160px" style="shape-rendering:geometricPrecision; text-rendering:geometricPrecision; image-rendering:optimizeQuality; fill-rule:evenodd; clip-rule:evenodd">
  <g>
    <path style="opacity:0.998" fill="#fe1c00" d="M 902.5,907.5 C 806.137,1002.03 709.137,1096.19 611.5,1190C 440.167,1190.5 268.834,1190.67 97.5,1190.5C 97.3505,1189.45 97.5172,1188.45 98,1187.5C 304.752,983.082 511.252,778.249 717.5,573C 752.56,537.939 788.226,503.605 824.5,470C 867.819,430.349 914.819,395.682 965.5,366C 1030.35,330.385 1099.18,307.218 1172,296.5C 1183.97,293.502 1196.14,291.335 1208.5,290C 1256.92,284.351 1305.42,280.517 1354,278.5C 1935.29,278.334 2516.79,278.501 3098.5,279C 2983.75,392.75 2868.75,506.083 2753.5,619C 2331.93,619.167 1910.43,619.667 1489,620.5C 1478.81,620.446 1468.14,620.113 1457,619.5C 1450.72,620.248 1444.39,620.915 1438,621.5C 1428.3,621.421 1418.63,621.421 1409,621.5C 1404.62,622.108 1400.29,622.775 1396,623.5C 1340.33,624.571 1284.16,633.404 1227.5,650C 1181.3,665.76 1139.3,688.76 1101.5,719C 1087.5,731 1073.5,743 1059.5,755C 1006.64,805.365 954.303,856.198 902.5,907.5 Z"></path>
  </g>
  <g>
    <path style="opacity:0.998" fill="#fe1c00" d="M 3168.5,278.5 C 3359.5,278.333 3550.5,278.5 3741.5,279C 3437.81,582.36 3134.47,886.027 2831.5,1190C 2641.5,1190.67 2451.5,1190.67 2261.5,1190C 2261.17,1189.67 2260.83,1189.33 2260.5,1189C 2563.37,885.632 2866.03,582.132 3168.5,278.5 Z"></path>
  </g>
  <g>
    <path style="opacity:0.997" fill="#fe1c00" d="M 2593.5,781.5 C 2592.5,781.833 2591.83,782.5 2591.5,783.5C 2589.83,784.5 2588.5,785.833 2587.5,787.5C 2518.42,856.078 2449.42,924.911 2380.5,994C 2087.43,994.827 1794.6,994.661 1502,993.5C 1497.53,994.194 1493.03,994.86 1488.5,995.5C 1461.36,995.684 1433.7,999.184 1405.5,1006C 1378.56,1012.97 1354.22,1024.97 1332.5,1042C 1282.31,1091.19 1232.65,1140.52 1183.5,1190C 1024.5,1190.67 865.5,1190.67 706.5,1190C 705.359,1189.26 705.359,1188.43 706.5,1187.5C 834.274,1059.23 962.608,930.725 1091.5,802C 1116.78,777.049 1144.11,754.715 1173.5,735C 1214.54,709.983 1258.88,693.649 1306.5,686C 1348.02,679.408 1389.19,675.575 1430,674.5C 1852.96,674.168 2276.13,674.501 2699.5,675.5C 2664.48,711.188 2629.15,746.521 2593.5,781.5 Z"></path>
  </g>
  <g>
    <path style="opacity:0.129" fill="#670c00" d="M 2593.5,781.5 C 2594.83,782.167 2594.83,782.167 2593.5,781.5 Z"></path>
  </g>
  <g>
    <path style="opacity:0.129" fill="#670c00" d="M 2591.5,783.5 C 2592.83,784.167 2592.83,784.167 2591.5,783.5 Z"></path>
  </g>
  <g>
    <path style="opacity:0.129" fill="#670c00" d="M 2587.5,787.5 C 2588.83,788.167 2588.83,788.167 2587.5,787.5 Z"></path>
  </g>
  <g>
    <path style="opacity:0.129" fill="#670c00" d="M 902.5,907.5 C 903.833,908.167 903.833,908.167 902.5,907.5 Z"></path>
  </g>
  <g>
    <path style="opacity:0.99" fill="#010000" d="M 485.5,1631.5 C 379.332,1631.17 273.332,1631.5 167.5,1632.5C 165.748,1632.42 164.748,1633.25 164.5,1635C 165.496,1713.8 165.829,1792.64 165.5,1871.5C 137.833,1871.5 110.167,1871.5 82.5,1871.5C 82.5,1688.17 82.5,1504.83 82.5,1321.5C 221.258,1321.19 360.091,1321.52 499,1322.5C 499.98,1347.25 499.647,1371.92 498,1396.5C 387.082,1395.35 276.249,1395.18 165.5,1396C 165.488,1450.02 165.488,1504.19 165.5,1558.5C 272.65,1558.48 379.65,1558.48 486.5,1558.5C 486.831,1583.01 486.498,1607.34 485.5,1631.5 Z"></path>
  </g>
  <g>
    <path style="opacity:0.986" fill="#030000" d="M 2604.5,1321.5 C 2630.86,1321.73 2657.52,1321.73 2684.5,1321.5C 2684.5,1504.83 2684.5,1688.17 2684.5,1871.5C 2657.5,1871.5 2630.5,1871.5 2603.5,1871.5C 2603.18,1687.72 2603.52,1504.39 2604.5,1321.5 Z"></path>
  </g>
  <g>
    <path style="opacity:0.986" fill="#010000" d="M 3377.5,1321.5 C 3427.21,1321.51 3476.71,1321.51 3526,1321.5C 3546.14,1322.16 3564.64,1327.99 3581.5,1339C 3593.8,1349.06 3601.96,1361.9 3606,1377.5C 3608.59,1387.91 3610.25,1398.24 3611,1408.5C 3611.83,1538.07 3611.67,1667.57 3610.5,1797C 3612.46,1798.1 3614.63,1798.6 3617,1798.5C 3663.49,1797.53 3709.99,1797.19 3756.5,1797.5C 3756.5,1822.17 3756.5,1846.83 3756.5,1871.5C 3624.6,1871.17 3492.76,1871.5 3361,1872.5C 3361.31,1851.24 3361.14,1828.91 3360.5,1805.5C 3360.57,1802.71 3361.24,1800.21 3362.5,1798C 3417.11,1797.21 3471.78,1797.37 3526.5,1798.5C 3526.99,1667.79 3526.49,1537.12 3525,1406.5C 3523.04,1404.67 3521.88,1402.84 3521.5,1401C 3518.83,1399.32 3516.16,1397.66 3513.5,1396C 3468.17,1395.5 3422.83,1395.33 3377.5,1395.5C 3377.5,1370.83 3377.5,1346.17 3377.5,1321.5 Z"></path>
  </g>
  <g>
    <path style="opacity:0.988" fill="#010000" d="M 607.5,1849.5 C 607.027,1848.09 606.027,1847.43 604.5,1847.5C 604.167,1846.5 603.5,1845.83 602.5,1845.5C 599.109,1844.47 596.443,1842.47 594.5,1839.5C 594.167,1838.5 593.5,1837.83 592.5,1837.5C 592.167,1836.5 591.5,1835.83 590.5,1835.5C 571.433,1818.46 558.433,1797.96 551.5,1774C 543.962,1754.96 539.795,1735.12 539,1714.5C 538.705,1683.94 538.205,1654.77 537.5,1627C 536.38,1594.79 540.547,1562.95 550,1531.5C 553.716,1522.81 557.716,1513.81 562,1504.5C 565.93,1498.3 570.097,1492.3 574.5,1486.5C 575.5,1486.17 576.167,1485.5 576.5,1484.5C 583.27,1474.56 591.603,1466.06 601.5,1459C 627.085,1441.71 654.919,1430.54 685,1425.5C 688.667,1425.5 692.333,1425.5 696,1425.5C 701.298,1424.28 706.631,1423.28 712,1422.5C 745.627,1422.35 779.46,1422.52 813.5,1423C 849.103,1425.1 882.103,1434.77 912.5,1452C 951.324,1477.56 975.158,1513.39 984,1559.5C 985.613,1568.46 986.946,1577.46 988,1586.5C 989.546,1623.49 989.879,1660.49 989,1697.5C 984.826,1805.8 929.659,1866.13 823.5,1878.5C 818.302,1879.14 813.135,1879.81 808,1880.5C 773.04,1880.65 737.873,1880.49 702.5,1880C 680.391,1878.4 658.724,1873.73 637.5,1866C 627.075,1861.15 617.075,1855.65 607.5,1849.5 Z M 715.5,1492.5 C 746.625,1492.52 777.959,1492.52 809.5,1492.5C 826.939,1492.95 844.272,1496.45 861.5,1503C 879.928,1513.1 892.095,1528.27 898,1548.5C 899.57,1554.86 901.07,1561.19 902.5,1567.5C 902.389,1568.12 902.056,1568.62 901.5,1569C 902.109,1570.95 902.776,1572.78 903.5,1574.5C 904.416,1620.45 904.749,1666.45 904.5,1712.5C 904.092,1734.72 898.925,1755.72 889,1775.5C 876.876,1792.83 860.543,1803.17 840,1806.5C 834.65,1808.21 829.15,1809.38 823.5,1810C 785.64,1811.34 749.973,1811.84 716.5,1811.5C 701.49,1810.95 687.49,1808.45 674.5,1804C 646.74,1791.88 630.574,1770.72 626,1740.5C 623.845,1729.26 622.512,1717.93 622,1706.5C 621.333,1670.83 621.333,1635.17 622,1599.5C 621.624,1572.67 627.957,1547.67 641,1524.5C 650.41,1512.7 662.243,1504.2 676.5,1499C 689.481,1495.5 702.481,1493.34 715.5,1492.5 Z"></path>
  </g>
  <g>
    <path style="opacity:0.989" fill="#030000" d="M 2148.5,1831.5 C 2148.17,1830.5 2147.5,1829.83 2146.5,1829.5C 2141.67,1822.51 2137.34,1815.18 2133.5,1807.5C 2133.6,1805.45 2132.93,1803.78 2131.5,1802.5C 2131.67,1801.51 2131.34,1800.84 2130.5,1800.5C 2125.83,1789.98 2122.66,1778.98 2121,1767.5C 2118.92,1754.24 2117.75,1740.91 2117.5,1727.5C 2117.82,1722.64 2117.49,1717.97 2116.5,1713.5C 2116.5,1644.17 2116.5,1574.83 2116.5,1505.5C 2117.83,1504.5 2117.83,1503.5 2116.5,1502.5C 2116.5,1499.83 2116.5,1497.17 2116.5,1494.5C 2117.83,1493.17 2117.83,1491.83 2116.5,1490.5C 2116.5,1486.17 2116.5,1481.83 2116.5,1477.5C 2117.83,1474.5 2117.83,1471.5 2116.5,1468.5C 2116.18,1456.25 2116.51,1444.09 2117.5,1432C 2143.97,1431.27 2170.47,1431.43 2197,1432.5C 2197.33,1533.83 2197.67,1635.17 2198,1736.5C 2197.94,1753.26 2202.94,1768.26 2213,1781.5C 2222.41,1790.29 2233.58,1795.45 2246.5,1797C 2306.4,1797.17 2366.24,1797.67 2426,1798.5C 2427.33,1676.64 2428,1554.64 2428,1432.5C 2454.51,1431.25 2481.17,1431.25 2508,1432.5C 2508.5,1578.83 2508.67,1725.17 2508.5,1871.5C 2414.82,1871.96 2321.15,1871.46 2227.5,1870C 2195.72,1867.78 2169.39,1854.94 2148.5,1831.5 Z"></path>
  </g>
  <g>
    <path style="opacity:0.987" fill="#010000" d="M 1140.5,1561.5 C 1140.16,1664.88 1139.16,1768.21 1137.5,1871.5C 1111.5,1871.5 1085.5,1871.5 1059.5,1871.5C 1059.33,1759.5 1059.5,1647.5 1060,1535.5C 1060.18,1511.42 1066.85,1489.42 1080,1469.5C 1085.53,1463.63 1091.36,1458.13 1097.5,1453C 1111.45,1444.75 1126.45,1439.09 1142.5,1436C 1154.34,1434.54 1165.84,1433.04 1177,1431.5C 1216.93,1431.31 1258.43,1431.64 1301.5,1432.5C 1301.83,1456.74 1301.49,1480.91 1300.5,1505C 1272.63,1505.43 1245.63,1505.27 1219.5,1504.5C 1202.47,1504.28 1186.14,1506.78 1170.5,1512C 1157.57,1516.59 1149.07,1525.43 1145,1538.5C 1142.69,1546.06 1141.19,1553.73 1140.5,1561.5 Z"></path>
  </g>
  <g>
    <path style="opacity:0.987" fill="#020000" d="M 1955.5,1573.5 C 1955.8,1570.94 1955.47,1568.61 1954.5,1566.5C 1954.03,1551.25 1949.86,1537.25 1942,1524.5C 1935.03,1516.88 1926.53,1511.71 1916.5,1509C 1905.77,1506.41 1894.93,1504.91 1884,1504.5C 1862.81,1505.54 1841.48,1505.54 1820,1504.5C 1800.04,1503.67 1781.54,1507.67 1764.5,1516.5C 1763.5,1516.83 1762.83,1517.5 1762.5,1518.5C 1754.16,1526.84 1748.66,1536.84 1746,1548.5C 1745,1555.5 1744,1562.5 1743,1569.5C 1742.5,1670.17 1742.33,1770.83 1742.5,1871.5C 1715.83,1871.5 1689.17,1871.5 1662.5,1871.5C 1661.39,1786.46 1661.39,1701.46 1662.5,1616.5C 1663.05,1593.06 1661.89,1569.73 1659,1546.5C 1655.08,1528.25 1644.41,1515.92 1627,1509.5C 1626.67,1509.83 1626.33,1510.17 1626,1510.5C 1620.36,1508.27 1614.53,1506.6 1608.5,1505.5C 1607.91,1505.71 1607.41,1506.04 1607,1506.5C 1602.89,1505.74 1598.73,1505.07 1594.5,1504.5C 1568.79,1505.75 1543.79,1505.75 1519.5,1504.5C 1515.27,1505.07 1511.11,1505.74 1507,1506.5C 1473.35,1507.45 1454.69,1525.45 1451,1560.5C 1450.81,1569.88 1450.31,1579.21 1449.5,1588.5C 1449.2,1682.83 1449.53,1777.16 1450.5,1871.5C 1423.5,1871.67 1396.5,1871.5 1369.5,1871C 1369.51,1726.69 1369.51,1582.19 1369.5,1437.5C 1369.67,1435.83 1369.83,1434.17 1370,1432.5C 1371.06,1431.9 1372.23,1431.57 1373.5,1431.5C 1399.14,1431.17 1424.64,1431.5 1450,1432.5C 1449.19,1459.43 1449.35,1486.43 1450.5,1513.5C 1457.52,1478.32 1477.52,1453.82 1510.5,1440C 1522.17,1436.55 1533.67,1433.72 1545,1431.5C 1572.79,1431.57 1601.12,1431.57 1630,1431.5C 1665.88,1433.27 1695.55,1447.94 1719,1475.5C 1724.95,1483.74 1730.12,1492.41 1734.5,1501.5C 1744.25,1465.92 1767.25,1444.08 1803.5,1436C 1811.67,1434.23 1819.83,1432.73 1828,1431.5C 1856,1431.58 1883.67,1431.58 1911,1431.5C 1984.11,1435.59 2024.61,1474.43 2032.5,1548C 2033.99,1555.38 2034.83,1562.88 2035,1570.5C 2035.5,1670.83 2035.67,1771.17 2035.5,1871.5C 2008.83,1871.5 1982.17,1871.5 1955.5,1871.5C 1955.44,1771.86 1955.44,1672.53 1955.5,1573.5 Z"></path>
  </g>
  <g>
    <path style="opacity:0.987" fill="#010000" d="M 2766.5,1486.5 C 2767.5,1471.68 2767.83,1456.68 2767.5,1441.5C 2766.57,1438.89 2766.4,1436.22 2767,1433.5C 2768.35,1432.3 2770.02,1431.63 2772,1431.5C 2856.43,1431.57 2938.77,1431.57 3019,1431.5C 3037.46,1433.16 3056.29,1436 3075.5,1440C 3118.78,1449.61 3144.95,1476.11 3154,1519.5C 3156.33,1532.97 3157.83,1546.47 3158.5,1560C 3158.5,1663.63 3158.5,1767.46 3158.5,1871.5C 3056.15,1871.96 2953.82,1871.46 2851.5,1870C 2777.76,1863.74 2743.26,1823.58 2748,1749.5C 2751.69,1715.38 2767.02,1688.71 2794,1669.5C 2794.78,1667.71 2795.95,1666.21 2797.5,1665C 2804.5,1660 2811.5,1655 2818.5,1650C 2896.94,1600.94 2975.27,1551.61 3053.5,1502C 2957.83,1501.67 2862.17,1501.33 2766.5,1501C 2766.61,1496.18 2766.61,1491.34 2766.5,1486.5 Z M 3076.5,1565.5 C 3077.06,1640.77 3077.73,1716.77 3078.5,1793.5C 3078.32,1794.55 3077.99,1795.55 3077.5,1796.5C 3009.84,1797.67 2942.17,1797.83 2874.5,1797C 2841.19,1795.32 2827.36,1777.82 2833,1744.5C 2835.2,1730.3 2841.7,1718.47 2852.5,1709C 2864.82,1699.51 2877.48,1690.51 2890.5,1682C 2952.73,1643.39 3014.73,1604.56 3076.5,1565.5 Z"></path>
  </g>
  <g>
    <path style="opacity:0.129" fill="#670c00" d="M 2767.5,1441.5 C 2767.83,1456.68 2767.5,1471.68 2766.5,1486.5C 2765.87,1473.32 2765.54,1460.15 2765.5,1447C 2766.11,1445.05 2766.78,1443.22 2767.5,1441.5 Z"></path>
  </g>
  <g>
    <path style="opacity:0.129" fill="#670c00" d="M 2116.5,1468.5 C 2117.83,1471.5 2117.83,1474.5 2116.5,1477.5C 2115.17,1474.5 2115.17,1471.5 2116.5,1468.5 Z"></path>
  </g>
  <g>
    <path style="opacity:0.129" fill="#670c00" d="M 576.5,1484.5 C 576.167,1485.5 575.5,1486.17 574.5,1486.5C 574.5,1485.17 575.167,1484.5 576.5,1484.5 Z"></path>
  </g>
  <g>
    <path style="opacity:0.129" fill="#670c00" d="M 2116.5,1490.5 C 2117.83,1491.83 2117.83,1493.17 2116.5,1494.5C 2115.59,1493.3 2115.59,1491.96 2116.5,1490.5 Z"></path>
  </g>
  <g>
    <path style="opacity:0.129" fill="#670c00" d="M 715.5,1492.5 C 746.833,1491.17 778.167,1491.17 809.5,1492.5C 777.959,1492.52 746.625,1492.52 715.5,1492.5 Z"></path>
  </g>
  <g>
    <path style="opacity:0.129" fill="#670c00" d="M 2116.5,1502.5 C 2117.83,1503.5 2117.83,1504.5 2116.5,1505.5C 2115.88,1504.8 2115.88,1503.8 2116.5,1502.5 Z"></path>
  </g>
  <g>
    <path style="opacity:0.129" fill="#670c00" d="M 1764.5,1516.5 C 1764.5,1517.83 1763.83,1518.5 1762.5,1518.5C 1762.83,1517.5 1763.5,1516.83 1764.5,1516.5 Z"></path>
  </g>
  <g>
    <path style="opacity:0.129" fill="#670c00" d="M 1140.5,1561.5 C 1140.5,1664.83 1140.5,1768.17 1140.5,1871.5C 1139.5,1871.5 1138.5,1871.5 1137.5,1871.5C 1139.16,1768.21 1140.16,1664.88 1140.5,1561.5 Z"></path>
  </g>
  <g>
    <path style="opacity:0.129" fill="#670c00" d="M 1954.5,1566.5 C 1955.47,1568.61 1955.8,1570.94 1955.5,1573.5C 1954.73,1572.83 1954.07,1571.99 1953.5,1571C 1954.38,1569.64 1954.71,1568.14 1954.5,1566.5 Z"></path>
  </g>
  <g>
    <path style="opacity:0.129" fill="#670c00" d="M 902.5,1567.5 C 903.468,1569.61 903.802,1571.94 903.5,1574.5C 902.776,1572.78 902.109,1570.95 901.5,1569C 902.056,1568.62 902.389,1568.12 902.5,1567.5 Z"></path>
  </g>
  <g>
    <path style="opacity:0.129" fill="#670c00" d="M 167.5,1632.5 C 273.332,1631.5 379.332,1631.17 485.5,1631.5C 483.782,1632.22 481.948,1632.89 480,1633.5C 380.253,1632.73 276.087,1632.4 167.5,1632.5 Z"></path>
  </g>
  <g>
    <path style="opacity:0.129" fill="#670c00" d="M 2116.5,1713.5 C 2117.49,1717.97 2117.82,1722.64 2117.5,1727.5C 2116.8,1724.1 2116.14,1720.6 2115.5,1717C 2116.34,1715.99 2116.67,1714.82 2116.5,1713.5 Z"></path>
  </g>
  <g>
    <path style="opacity:0.129" fill="#670c00" d="M 2130.5,1800.5 C 2131.34,1800.84 2131.67,1801.51 2131.5,1802.5C 2129.89,1801.99 2129.56,1801.33 2130.5,1800.5 Z"></path>
  </g>
  <g>
    <path style="opacity:0.129" fill="#670c00" d="M 2131.5,1802.5 C 2132.93,1803.78 2133.6,1805.45 2133.5,1807.5C 2132.07,1806.22 2131.4,1804.55 2131.5,1802.5 Z"></path>
  </g>
  <g>
    <path style="opacity:0.129" fill="#670c00" d="M 2146.5,1829.5 C 2147.5,1829.83 2148.17,1830.5 2148.5,1831.5C 2147.17,1831.5 2146.5,1830.83 2146.5,1829.5 Z"></path>
  </g>
  <g>
    <path style="opacity:0.129" fill="#670c00" d="M 590.5,1835.5 C 591.5,1835.83 592.167,1836.5 592.5,1837.5C 591.167,1837.5 590.5,1836.83 590.5,1835.5 Z"></path>
  </g>
  <g>
    <path style="opacity:0.129" fill="#670c00" d="M 592.5,1837.5 C 593.5,1837.83 594.167,1838.5 594.5,1839.5C 593.167,1839.5 592.5,1838.83 592.5,1837.5 Z"></path>
  </g>
  <g>
    <path style="opacity:0.129" fill="#670c00" d="M 602.5,1845.5 C 603.5,1845.83 604.167,1846.5 604.5,1847.5C 603.167,1847.5 602.5,1846.83 602.5,1845.5 Z"></path>
  </g>
  <g>
    <path style="opacity:0.129" fill="#670c00" d="M 604.5,1847.5 C 606.027,1847.43 607.027,1848.09 607.5,1849.5C 605.973,1849.57 604.973,1848.91 604.5,1847.5 Z"></path>
  </g>
</svg>
