<svg width="52" height="35" viewBox="0 0 52 35" fill="none" xmlns="http://www.w3.org/2000/svg">
<rect x="0.5" y="0.5" width="50.0416" height="34" rx="5.5" fill="white" stroke="#D9D9D9"/>
<path fill-rule="evenodd" clip-rule="evenodd" d="M24.1064 22.9808V18.5752H26.3802C27.312 18.5752 28.0984 18.263 28.7395 17.6473L28.8934 17.4911C30.0645 16.2163 29.9875 14.2303 28.7395 13.0509C28.1155 12.4265 27.2607 12.0883 26.3802 12.1056H22.7302V22.9808H24.1064ZM24.1066 17.2396V13.4411H26.4149C26.9108 13.4411 27.381 13.6319 27.7316 13.9788C28.4754 14.7073 28.4925 15.9214 27.7743 16.6759C27.4238 17.0488 26.9279 17.257 26.4149 17.2396H24.1066ZM35.313 16.1209C34.7232 15.5746 33.9197 15.2971 32.9025 15.2971C31.5946 15.2971 30.6116 15.7827 29.9619 16.7453L31.1757 17.5172C31.6202 16.8581 32.2272 16.5285 32.9965 16.5285C33.4837 16.5285 33.9539 16.7106 34.3214 17.0402C34.6805 17.3524 34.8856 17.8034 34.8856 18.2803V18.6012C34.3556 18.3064 33.6889 18.1503 32.8683 18.1503C31.9109 18.1503 31.1415 18.3757 30.5688 18.8354C29.9961 19.295 29.7055 19.9021 29.7055 20.6739C29.6884 21.3764 29.9875 22.0441 30.5175 22.4951C31.0561 22.9808 31.7399 23.2236 32.5434 23.2236C33.4923 23.2236 34.2445 22.7986 34.8172 21.9488H34.8771V22.9808H36.1935V18.3931C36.1935 17.4305 35.9028 16.6673 35.313 16.1209ZM31.5777 21.6105C31.2956 21.4024 31.1246 21.0642 31.1246 20.6999C31.1246 20.2923 31.3127 19.9541 31.6803 19.6853C32.0565 19.4164 32.5267 19.2777 33.0824 19.2777C33.8519 19.269 34.4504 19.4424 34.8778 19.7893C34.8778 20.379 34.647 20.8907 34.1939 21.3243C33.7835 21.7406 33.2278 21.9748 32.6464 21.9748C32.2617 21.9834 31.8855 21.8534 31.5777 21.6105ZM39.1511 26.2502L43.75 15.5399H42.2541L40.1256 20.8821H40.1L37.9202 15.5399H36.4243L39.4418 22.5038L37.7322 26.2502H39.1511Z" fill="#3C4043"/>
<path d="M19.3551 17.6211C19.3551 17.1962 19.3209 16.7713 19.2526 16.355H13.4484V18.7572H16.7736C16.6368 19.5291 16.1923 20.2229 15.5427 20.6565V22.2175H17.5258C18.6884 21.1335 19.3551 19.5291 19.3551 17.6211Z" fill="#4285F4"/>
<path d="M13.4487 23.7265C15.107 23.7265 16.5089 23.1715 17.5261 22.2175L15.5429 20.6565C14.9873 21.0381 14.2778 21.2549 13.4487 21.2549C11.8416 21.2549 10.4825 20.1535 9.99522 18.6792H7.95222V20.2923C8.99509 22.3996 11.1236 23.7265 13.4487 23.7265Z" fill="#34A853"/>
<path d="M9.99544 18.6791C9.73896 17.9073 9.73896 17.0661 9.99544 16.2855V14.6812H7.95212C7.07152 16.4416 7.07152 18.523 7.95212 20.2835L9.99544 18.6791Z" fill="#FBBC04"/>
<path d="M13.4487 13.7098C14.3291 13.6924 15.1754 14.0307 15.8079 14.6464L17.5688 12.8599C16.449 11.8019 14.9788 11.2208 13.4487 11.2382C11.1236 11.2382 8.99509 12.5737 7.95222 14.6811L9.99522 16.2942C10.4825 14.8112 11.8416 13.7098 13.4487 13.7098Z" fill="#EA4335"/>
</svg>
