<?xml version="1.0" standalone="no"?>
<!DOCTYPE svg PUBLIC "-//W3C//DTD SVG 20010904//EN"
 "http://www.w3.org/TR/2001/REC-SVG-20010904/DTD/svg10.dtd">
<svg version="1.0" xmlns="http://www.w3.org/2000/svg"
 width="258.000000pt" height="196.000000pt" viewBox="0 0 258.000000 196.000000"
 preserveAspectRatio="xMidYMid meet">

<g transform="translate(0.000000,196.000000) scale(0.100000,-0.100000)"
fill="#000000" stroke="none">
<path d="M1182 1950 c-60 -13 -158 -63 -224 -115 -215 -168 -289 -502 -140
-627 114 -96 325 -71 501 60 l63 47 -97 5 c-80 4 -99 8 -111 24 -21 29 -17 64
11 91 24 25 25 25 219 25 209 0 226 -4 226 -53 0 -48 -62 -363 -76 -384 -29
-45 -107 -39 -119 9 -3 13 1 57 8 100 l14 76 -63 -48 c-268 -205 -568 -235
-730 -73 -56 56 -85 129 -93 236 l-7 92 -8 -69 c-29 -240 70 -487 253 -633
258 -204 635 -202 883 5 111 92 198 231 235 372 23 88 22 254 -1 340 -66 244
-264 445 -497 504 -75 19 -195 27 -247 16z"/>
<path d="M571 1434 c0 -11 3 -14 6 -6 3 7 2 16 -1 19 -3 4 -6 -2 -5 -13z"/>
<path d="M57 413 c-13 -21 -56 -298 -48 -306 5 -5 17 -7 27 -5 15 3 22 24 38
116 11 61 21 110 24 108 2 -3 11 -35 21 -72 28 -112 53 -110 123 8 22 38 42
67 43 66 2 -2 -6 -50 -16 -108 -19 -106 -17 -125 17 -118 16 3 23 27 45 148
14 80 23 151 21 158 -3 8 -17 12 -35 10 -27 -3 -38 -14 -86 -91 -30 -48 -56
-85 -58 -83 -3 2 -15 42 -27 88 -22 80 -24 83 -54 86 -16 2 -32 -1 -35 -5z"/>
<path d="M1424 402 c-17 -11 -40 -31 -51 -45 -13 -17 -27 -24 -39 -21 -24 6
-40 -11 -87 -95 -35 -64 -36 -64 -42 -35 -27 115 -32 129 -49 132 -34 7 -35
-13 -9 -117 l26 -104 -26 -48 c-32 -56 -33 -69 -9 -69 25 0 37 15 118 153 l69
118 5 -44 c6 -49 29 -89 65 -113 31 -20 105 -23 140 -4 22 12 29 12 32 3 3 -7
13 -13 22 -13 14 0 21 13 30 57 6 31 11 69 11 85 l0 29 -67 -3 c-60 -3 -68 -5
-68 -23 0 -16 8 -21 42 -23 l43 -3 -15 -29 c-40 -78 -155 -61 -171 25 -9 50 2
83 41 122 43 43 102 47 142 7 14 -14 31 -23 39 -20 22 8 16 40 -11 66 -36 34
-136 40 -181 12z"/>
<path d="M406 319 c-54 -42 -71 -112 -41 -169 20 -38 46 -52 102 -52 79 0 123
49 123 135 0 40 -5 53 -29 78 -25 24 -38 29 -79 29 -35 0 -57 -6 -76 -21z
m112 -35 c50 -35 13 -144 -49 -144 -56 0 -86 59 -57 113 25 47 66 59 106 31z"/>
<path d="M626 248 c-25 -143 -25 -143 4 -143 23 0 26 6 40 77 16 85 34 111 75
111 47 0 50 -19 29 -151 -6 -40 -5 -42 19 -42 30 0 31 4 47 104 12 72 12 79
-7 104 -26 35 -92 43 -121 14 -18 -18 -19 -19 -31 -1 -25 40 -39 21 -55 -73z"/>
<path d="M929 323 c-39 -24 -59 -65 -59 -120 0 -56 23 -87 79 -103 60 -17 141
12 141 50 0 23 -17 25 -44 5 -44 -33 -126 -9 -126 38 0 14 15 17 93 19 l92 3
-1 39 c-2 56 -38 86 -102 86 -26 0 -59 -8 -73 -17z m121 -43 c17 -31 4 -40
-61 -40 -45 0 -59 3 -59 14 0 42 100 63 120 26z"/>
<path d="M1685 328 c-6 -22 -35 -192 -35 -210 0 -12 8 -18 24 -18 27 0 31 9
41 81 4 26 16 61 26 79 17 28 24 31 57 28 34 -3 37 -1 37 22 0 21 -5 26 -31
28 -20 2 -38 -3 -49 -14 -16 -16 -18 -16 -27 -1 -11 20 -37 23 -43 5z"/>
<path d="M1892 326 c-64 -35 -86 -153 -37 -201 32 -33 89 -37 133 -9 19 13 22
13 22 -1 0 -11 7 -15 23 -13 20 3 24 13 39 98 23 127 23 140 -2 140 -10 0 -23
-7 -28 -16 -9 -16 -11 -16 -33 0 -28 19 -85 20 -117 2z m112 -48 c23 -33 19
-72 -10 -107 -45 -53 -114 -35 -114 30 0 34 23 85 42 92 32 13 68 6 82 -15z"/>
<path d="M2117 243 c-23 -128 -22 -143 3 -143 24 0 35 25 45 96 8 58 26 89 55
97 26 7 64 -27 56 -49 -3 -8 -9 -44 -12 -80 -7 -65 -7 -66 17 -62 21 3 26 12
37 63 21 96 26 109 52 122 20 10 29 10 45 -1 21 -15 22 -26 10 -124 -8 -62 -7
-62 18 -62 23 0 26 5 41 85 16 87 14 107 -12 138 -21 23 -83 22 -114 -3 -25
-19 -26 -19 -43 0 -22 24 -81 27 -112 5 -19 -13 -22 -13 -27 0 -3 8 -14 15
-24 15 -16 0 -21 -15 -35 -97z"/>
<path d="M2530 141 c0 -6 4 -13 10 -16 6 -3 7 1 4 9 -7 18 -14 21 -14 7z"/>
</g>
</svg>
