<svg width="55" height="35" viewBox="0 0 55 35" fill="none" xmlns="http://www.w3.org/2000/svg">
<rect x="0.5" y="0.5" width="53.6875" height="34" rx="5.5" fill="white" stroke="#D9D9D9"/>
<path d="M31.3983 17.685C31.3983 23.2448 26.6247 27.7519 20.7362 27.7519C14.8476 27.7519 10.074 23.2448 10.074 17.685C10.074 12.1252 14.8476 7.61816 20.7362 7.61816C26.6247 7.61816 31.3983 12.1252 31.3983 17.685Z" fill="#ED0006"/>
<path d="M45.2303 17.685C45.2303 23.2448 40.4567 27.7519 34.5681 27.7519C28.6796 27.7519 23.906 23.2448 23.906 17.685C23.906 12.1252 28.6796 7.61816 34.5681 7.61816C40.4567 7.61816 45.2303 12.1252 45.2303 17.685Z" fill="#0099DF"/>
<path fill-rule="evenodd" clip-rule="evenodd" d="M27.6522 25.3469C25.3597 23.5005 23.9061 20.753 23.9061 17.6849C23.9061 14.6169 25.3597 11.8694 27.6522 10.0229C29.9447 11.8694 31.3983 14.6169 31.3983 17.6849C31.3983 20.753 29.9447 23.5005 27.6522 25.3469Z" fill="#6C6BBD"/>
</svg>
