<svg width="54" height="35" viewBox="0 0 54 35" fill="none" xmlns="http://www.w3.org/2000/svg">
<rect x="0.5" y="0.5" width="52.9583" height="34" rx="5.5" fill="white" stroke="#D9D9D9"/>
<path fill-rule="evenodd" clip-rule="evenodd" d="M27.3646 25.0204C25.5276 26.5199 23.1447 27.4252 20.5408 27.4252C14.7308 27.4252 10.0208 22.9181 10.0208 17.3584C10.0208 11.7986 14.7308 7.2915 20.5408 7.2915C23.1447 7.2915 25.5276 8.19677 27.3646 9.69634C29.2016 8.19677 31.5845 7.2915 34.1884 7.2915C39.9984 7.2915 44.7083 11.7986 44.7083 17.3584C44.7083 22.9181 39.9984 27.4252 34.1884 27.4252C31.5845 27.4252 29.2016 26.5199 27.3646 25.0204Z" fill="#ED0006"/>
<path fill-rule="evenodd" clip-rule="evenodd" d="M27.3646 25.0204C29.6265 23.1739 31.0608 20.4264 31.0608 17.3584C31.0608 14.2903 29.6265 11.5428 27.3646 9.69634C29.2016 8.19677 31.5845 7.2915 34.1884 7.2915C39.9984 7.2915 44.7083 11.7986 44.7083 17.3584C44.7083 22.9181 39.9984 27.4252 34.1884 27.4252C31.5845 27.4252 29.2016 26.5199 27.3646 25.0204Z" fill="#F9A000"/>
<path fill-rule="evenodd" clip-rule="evenodd" d="M27.3646 25.0203C25.1027 23.1738 23.6685 20.4263 23.6685 17.3583C23.6685 14.2902 25.1027 11.5427 27.3646 9.69629C29.6265 11.5427 31.0608 14.2902 31.0608 17.3583C31.0608 20.4263 29.6265 23.1738 27.3646 25.0203Z" fill="#FF5E00"/>
</svg>
