<svg width="55" height="35" viewBox="0 0 55 35" fill="none" xmlns="http://www.w3.org/2000/svg">
<rect x="0.5" y="0.5" width="53.6875" height="34" rx="5.5" fill="white" stroke="#D9D9D9"/>
<path fill-rule="evenodd" clip-rule="evenodd" d="M15.4688 22.2261H13.0381C12.8718 22.2261 12.7303 22.3389 12.7044 22.4921L11.7213 28.3095C11.7018 28.4243 11.797 28.5278 11.9218 28.5278H13.0822C13.2485 28.5278 13.39 28.4149 13.4159 28.2614L13.6811 26.6924C13.7066 26.5388 13.8484 26.4261 14.0144 26.4261H14.7839C16.385 26.4261 17.3091 25.7029 17.5505 24.2699C17.6592 23.643 17.5551 23.1504 17.2405 22.8053C16.8951 22.4266 16.2822 22.2261 15.4688 22.2261ZM15.7492 24.3508C15.6163 25.1649 14.9499 25.1649 14.3055 25.1649H13.9387L14.196 23.6445C14.2113 23.5527 14.2966 23.485 14.3961 23.485H14.5643C15.0032 23.485 15.4173 23.485 15.6313 23.7185C15.7587 23.8579 15.7979 24.0648 15.7492 24.3508ZM22.7346 24.3247H21.5706C21.4714 24.3247 21.3857 24.3924 21.3704 24.4843L21.3189 24.7881L21.2375 24.6781C20.9855 24.3367 20.4237 24.2226 19.8628 24.2226C18.5765 24.2226 17.478 25.1318 17.264 26.4074C17.1528 27.0435 17.3109 27.6519 17.6975 28.0762C18.0523 28.4662 18.5599 28.6288 19.1637 28.6288C20.2 28.6288 20.7749 28.0068 20.7749 28.0068L20.7229 28.3087C20.7033 28.4242 20.7985 28.5276 20.9226 28.5276H21.9711C22.1379 28.5276 22.2785 28.4148 22.3048 28.2613L22.9339 24.543C22.9538 24.4286 22.8589 24.3247 22.7346 24.3247ZM21.112 26.4391C20.9997 27.0598 20.4719 27.4764 19.7989 27.4764C19.4609 27.4764 19.1906 27.3752 19.0173 27.1835C18.8452 26.9931 18.7798 26.7221 18.8346 26.4203C18.9395 25.8048 19.4762 25.3747 20.139 25.3747C20.4694 25.3747 20.7382 25.4771 20.9152 25.6705C21.0925 25.8659 21.1629 26.1386 21.112 26.4391ZM27.764 24.3245H28.9338C29.0976 24.3245 29.1931 24.496 29.1 24.6214L25.2097 29.8625C25.1467 29.9474 25.043 29.9979 24.9321 29.9979H23.7638C23.5994 29.9979 23.5033 29.8251 23.5985 29.6994L24.8099 28.1035L23.5216 24.5746C23.477 24.452 23.574 24.3245 23.7138 24.3245H24.8632C25.0125 24.3245 25.1443 24.416 25.1874 24.5494L25.8711 26.6808L27.4844 24.4629C27.5476 24.3763 27.6525 24.3245 27.764 24.3245Z" fill="#253B80"/>
<path fill-rule="evenodd" clip-rule="evenodd" d="M40.446 28.3098L41.4436 22.386C41.4589 22.2941 41.5442 22.2264 41.6434 22.2261H42.7664C42.8904 22.2261 42.9857 22.3298 42.9661 22.4447L41.9824 28.2617C41.9567 28.4153 41.8153 28.5281 41.6487 28.5281H40.6457C40.5217 28.5281 40.4265 28.4246 40.446 28.3098ZM32.8064 22.2264H30.3753C30.2093 22.2264 30.0679 22.3392 30.0419 22.4924L29.0588 28.3098C29.0393 28.4246 29.1345 28.5281 29.2587 28.5281H30.506C30.622 28.5281 30.7212 28.4492 30.7393 28.3417L31.0182 26.6927C31.0439 26.5391 31.1856 26.4264 31.3516 26.4264H32.1207C33.7222 26.4264 34.646 25.7032 34.8876 24.2702C34.9967 23.6433 34.8919 23.1507 34.5774 22.8056C34.2322 22.4269 33.6199 22.2264 32.8064 22.2264ZM33.0868 24.3511C32.9542 25.1652 32.2878 25.1652 31.643 25.1652H31.2766L31.5343 23.6448C31.5496 23.553 31.6342 23.4853 31.734 23.4853H31.9021C32.3407 23.4853 32.7552 23.4853 32.969 23.7188C33.0967 23.8582 33.1355 24.0651 33.0868 24.3511ZM40.0715 24.325H38.9084C38.8084 24.325 38.7235 24.3927 38.7085 24.4847L38.657 24.7885L38.5753 24.6784C38.3233 24.337 37.7618 24.2229 37.201 24.2229C35.9146 24.2229 34.8164 25.1322 34.6024 26.4077C34.4916 27.0438 34.649 27.6522 35.0357 28.0765C35.3911 28.4665 35.898 28.6291 36.5018 28.6291C37.5381 28.6291 38.1128 28.0071 38.1128 28.0071L38.061 28.309C38.0414 28.4245 38.1367 28.5279 38.2615 28.5279H39.3095C39.4755 28.5279 39.6169 28.4151 39.6429 28.2616L40.2723 24.5433C40.2916 24.4289 40.1964 24.325 40.0715 24.325ZM38.4492 26.4394C38.3375 27.0601 37.809 27.4767 37.1358 27.4767C36.7985 27.4767 36.5278 27.3755 36.3542 27.1838C36.1822 26.9935 36.1176 26.7224 36.1717 26.4206C36.2771 25.8051 36.8131 25.375 37.476 25.375C37.8066 25.375 38.0751 25.4774 38.2523 25.6708C38.4302 25.8662 38.5006 26.1389 38.4492 26.4394Z" fill="#179BD7"/>
<path d="M24.4641 20.1451L24.7629 18.3736L24.0973 18.3592H20.9189L23.1277 5.28696C23.1345 5.24749 23.1569 5.2107 23.1894 5.18457C23.222 5.15844 23.2638 5.14404 23.3072 5.14404H28.6666C30.4458 5.14404 31.6736 5.48961 32.3148 6.17166C32.6153 6.49164 32.8067 6.826 32.8993 7.19396C32.9963 7.58006 32.9982 8.04134 32.9033 8.60395L32.8963 8.64502V9.0055L33.197 9.16443C33.4501 9.28974 33.6511 9.4332 33.8054 9.59745C34.0626 9.87102 34.2289 10.2187 34.2991 10.6309C34.3717 11.0549 34.3477 11.5594 34.2289 12.1305C34.0917 12.7875 33.87 13.3597 33.5707 13.8279C33.2952 14.2594 32.9444 14.6171 32.5279 14.8945C32.1302 15.1579 31.6577 15.358 31.1235 15.486C30.6057 15.6117 30.0156 15.6753 29.3682 15.6753H28.9511C28.6529 15.6753 28.3631 15.7755 28.1358 15.9553C27.9078 16.1387 27.7569 16.3892 27.7106 16.6634L27.6792 16.8229L27.1513 19.9451L27.1273 20.0598C27.121 20.0962 27.1102 20.1143 27.0942 20.1266C27.0799 20.1376 27.0593 20.1451 27.0393 20.1451H24.4641Z" fill="#253B80"/>
<path d="M33.4816 8.68652C33.4656 8.78198 33.4473 8.87956 33.4268 8.97982C32.7199 12.3667 30.3019 13.5367 27.2136 13.5367H25.6412C25.2636 13.5367 24.9454 13.7927 24.8865 14.1403L24.0814 18.9058L23.8534 20.2565C23.8151 20.4848 24.0037 20.6906 24.2505 20.6906H27.0394C27.3697 20.6906 27.6501 20.4667 27.7021 20.1627L27.7296 20.0304L28.2547 16.9203L28.2885 16.7497C28.3398 16.4447 28.6209 16.2208 28.9511 16.2208H29.3682C32.0702 16.2208 34.1855 15.1968 34.8038 12.2339C35.062 10.9961 34.9283 9.96266 34.2449 9.23579C34.0381 9.01661 33.7816 8.83477 33.4816 8.68652Z" fill="#179BD7"/>
<path d="M32.7419 8.41158C32.634 8.38224 32.5225 8.35558 32.4082 8.33158C32.2934 8.30813 32.1756 8.28733 32.0546 8.2692C31.6306 8.2052 31.1661 8.1748 30.6684 8.1748H26.4677C26.3643 8.1748 26.2661 8.19666 26.1781 8.23613C25.9843 8.32305 25.8404 8.49424 25.8055 8.70381L24.9118 13.9865L24.8861 14.1406C24.945 13.7929 25.2633 13.5369 25.6409 13.5369H27.2133C30.3016 13.5369 32.7197 12.3664 33.4265 8.98005C33.4475 8.8798 33.4653 8.78221 33.4812 8.68676C33.3024 8.59823 33.1087 8.5225 32.9001 8.45797C32.8488 8.44197 32.7957 8.42651 32.7419 8.41158Z" fill="#222D65"/>
<path d="M25.8056 8.70385C25.8404 8.49427 25.9845 8.32309 26.1781 8.2367C26.2668 8.19723 26.3645 8.17537 26.4677 8.17537H30.6686C31.1663 8.17537 31.6308 8.20576 32.0546 8.26976C32.1758 8.28789 32.2936 8.30869 32.4084 8.33215C32.5227 8.35616 32.634 8.38282 32.7421 8.41214C32.7957 8.42708 32.8488 8.44254 32.9008 8.45801C33.1094 8.52253 33.3031 8.59879 33.4819 8.68678C33.6923 7.43518 33.4803 6.583 32.7553 5.81134C31.9559 4.96184 30.5131 4.59814 28.6671 4.59814H23.3075C22.9304 4.59814 22.6089 4.85411 22.5505 5.20234L20.3182 18.409C20.2741 18.6703 20.4901 18.906 20.7723 18.906H24.0812L24.912 13.9865L25.8056 8.70385Z" fill="#253B80"/>
</svg>
