 <svg  version="1.0" xmlns="http://www.w3.org/2000/svg"  width="450.000000pt" height="155.000000pt" viewBox="0 0 450.000000 155.000000"  preserveAspectRatio="xMidYMid meet">  <g transform="translate(0.000000,155.000000) scale(0.050000,-0.050000)" fill="#ffffff" stroke="none"> <path d="M2 2265 c1 -459 9 -812 18 -785 24 76 24 1620 0 1620 -13 0 -19 -290 -18 -835z"/> <path d="M2360 2260 l0 -840 -1180 0 -1180 0 0 -120 0 -120 255 -2 c140 -2 273 -1 295 1 34 2 33 -1 -9 -23 -129 -68 -212 -248 -152 -327 17 -22 30 -53 30 -71 1 -52 118 -198 158 -198 45 0 125 -79 81 -81 -75 -4 69 -35 163 -36 84 -1 120 9 158 43 28 24 39 29 25 12 -21 -28 -18 -31 26 -23 27 5 45 18 39 27 -6 10 -4 18 5 18 9 0 28 -18 41 -40 23 -36 47 -40 246 -40 246 0 264 6 406 133 54 48 105 87 114 87 34 0 119 150 119 210 0 71 -53 157 -84 137 -13 -7 -16 -4 -9 9 15 23 -103 123 -149 125 -99 5 82 36 217 38 l165 1 0 -560 c0 -484 4 -560 30 -560 17 0 30 -13 30 -30 0 -22 23 -30 90 -30 l90 0 0 710 0 711 1176 -6 1177 -5 0 845 0 845 -127 0 -126 0 0 -258 c0 -263 -9 -331 -43 -310 -11 7 -10 23 4 39 18 21 16 35 -9 60 -36 36 -43 58 -12 39 11 -7 14 1 8 19 -7 17 -20 31 -30 31 -10 0 -18 18 -18 41 0 22 -13 45 -29 51 -16 6 -24 22 -19 35 5 14 -23 62 -61 107 -39 45 -71 96 -71 112 0 24 -40 30 -215 31 l-215 2 84 -35 c490 -202 602 -882 206 -1252 -437 -409 -1176 -170 -1267 408 l-11 70 38 -80 c105 -221 453 -391 590 -289 44 32 237 78 258 61 33 -27 172 -61 172 -43 0 9 23 22 51 29 28 7 56 29 63 48 7 19 36 55 65 81 28 26 38 41 21 32 -21 -11 -18 -3 7 26 41 47 71 333 42 398 -8 21 -16 42 -18 47 -16 78 -178 178 -272 167 -46 -5 -79 0 -79 11 0 12 -11 16 -25 11 -14 -5 -79 -12 -145 -14 -104 -5 -122 -12 -143 -54 -14 -27 -45 -65 -71 -84 -25 -19 -46 -42 -47 -51 -5 -86 -109 -145 -109 -62 0 20 9 36 20 36 11 0 20 16 20 35 -1 30 -3 31 -20 5 -15 -23 -19 -16 -19 30 0 46 4 53 19 30 15 -23 19 -17 20 26 0 72 36 139 64 121 13 -7 17 -4 9 8 -7 11 19 49 57 82 39 34 70 72 70 84 0 12 9 16 20 9 11 -7 20 1 20 18 0 16 16 39 35 49 68 38 -71 53 -148 16 -358 -171 -491 -674 -211 -798 115 -51 220 -36 404 59 175 90 182 125 25 120 -127 -4 -176 59 -93 120 52 38 435 36 466 -2 24 -29 -18 -345 -59 -447 -50 -123 -157 -35 -122 100 28 111 23 112 -95 18 -291 -229 -676 -227 -812 6 -145 247 29 658 340 804 l100 47 -225 0 c-145 0 -225 -8 -225 -21 0 -12 -31 -63 -70 -113 -38 -50 -70 -108 -70 -127 0 -20 -11 -39 -25 -44 -14 -5 -35 -53 -48 -107 -22 -92 -23 -81 -25 157 l-2 255 -120 0 -120 0 0 -840z m2120 -210 c3 -66 4 -186 2 -267 l-2 -146 -140 6 c-77 4 -143 -1 -146 -12 -4 -10 -23 -12 -43 -4 -31 12 -27 19 30 58 62 42 199 269 199 331 0 14 13 30 29 36 16 6 24 24 18 40 -6 15 -5 53 2 83 21 82 46 20 51 -125z m-1849 37 c-8 -32 -5 -46 8 -38 12 8 16 1 9 -16 -7 -18 6 -39 31 -52 23 -13 37 -32 30 -42 -6 -11 2 -25 20 -31 17 -7 26 -20 20 -29 -5 -9 5 -25 22 -35 18 -9 31 -24 28 -33 -7 -26 81 -131 112 -131 39 0 37 -53 -3 -68 -22 -8 -29 -4 -22 14 12 33 -249 20 -271 -13 -8 -13 -14 117 -14 287 0 228 6 300 21 274 12 -20 16 -59 9 -87z m-1966 -1141 c8 -4 15 -17 15 -28 0 -10 23 -55 51 -100 58 -92 59 -168 1 -168 -37 0 -209 249 -211 307 -1 24 96 17 144 -11z m496 -22 c1 -24 7 -20 20 12 20 50 58 43 60 -12 1 -23 9 -18 23 16 18 40 24 43 30 16 5 -19 21 -29 35 -24 15 6 33 1 41 -12 10 -16 21 -16 41 1 15 12 38 16 50 8 13 -8 32 -2 43 13 14 21 22 22 29 4 7 -17 51 -21 151 -13 106 8 146 4 158 -16 23 -36 23 -117 0 -117 -9 0 -24 20 -32 45 l-15 45 -9 -45 c-11 -56 -46 -60 -46 -5 0 22 -9 40 -20 40 -11 0 -20 -16 -20 -36 0 -36 -242 -50 -296 -16 -12 7 -27 3 -34 -8 -8 -13 -26 -13 -54 2 -39 21 -75 0 -76 -45 0 -30 122 -29 140 1 16 27 19 28 19 2 1 -23 27 -30 116 -30 111 0 115 -2 121 -55 4 -30 -3 -55 -15 -55 -11 0 -21 18 -21 40 0 22 -9 40 -20 40 -11 0 -20 -17 -20 -37 0 -31 -17 -37 -120 -38 -109 -2 -120 2 -120 40 0 23 -7 35 -15 27 -8 -9 -15 -25 -15 -38 0 -12 -35 -23 -80 -23 l-80 -1 -2 130 c-1 72 -4 139 -7 150 -10 35 -2 53 19 40 11 -7 21 -28 21 -46z m-279 -54 c25 -49 52 -90 62 -90 26 0 19 33 -26 109 l-42 71 72 0 c117 0 133 -64 52 -207 -91 -162 -100 -159 -237 92 l-63 115 68 0 c62 0 74 -9 114 -90z"/> <path d="M1184 831 c-27 -59 -32 -151 -9 -151 24 0 59 131 45 169 -10 29 -16 26 -36 -18z"/> <path d="M5052 2998 c-72 -66 -133 -147 -175 -231 l-64 -129 42 -42 41 -41 37 58 c20 31 48 69 62 83 14 15 25 40 25 55 0 16 9 29 20 29 11 0 20 -10 20 -21 0 -12 9 -16 19 -10 11 7 14 25 8 42 -6 16 0 29 13 29 14 0 19 13 12 31 -6 17 -4 26 5 21 9 -6 37 4 62 21 35 25 39 36 18 49 -16 11 -18 18 -4 18 12 0 28 23 35 50 7 28 22 50 32 50 11 0 20 9 20 20 0 59 -122 15 -228 -82z"/> <path d="M5960 3070 c0 -17 -18 -30 -40 -30 -29 0 -40 -13 -40 -48 0 -27 -11 -53 -25 -59 -20 -8 -20 -10 0 -11 35 -3 31 -55 -5 -69 -16 -7 -30 -26 -30 -42 0 -17 -13 -31 -30 -31 -23 0 -25 -11 -10 -50 15 -39 13 -50 -10 -50 -30 0 -63 -123 -42 -157 7 -12 -2 -29 -20 -39 -34 -19 14 -144 56 -144 8 0 9 -16 2 -35 -8 -23 -5 -28 8 -15 11 11 38 99 62 196 49 205 133 362 271 509 l99 105 -123 0 c-96 0 -123 -7 -123 -30z"/> <path d="M6269 3056 c-191 -151 -334 -394 -374 -636 l-28 -170 -93 7 c-90 6 -94 4 -94 -45 0 -50 4 -52 125 -52 69 0 115 -7 102 -15 -74 -48 81 -427 250 -609 98 -106 103 -116 59 -116 -116 0 -321 318 -396 615 -21 82 -60 117 -60 54 0 -17 -9 -26 -21 -19 -13 9 -16 -5 -8 -38 7 -29 5 -52 -5 -52 -11 0 -19 -13 -19 -29 0 -16 7 -25 16 -19 10 6 17 -6 18 -26 0 -60 69 -249 85 -234 8 8 14 4 14 -9 0 -45 -4 -53 -24 -47 -12 3 -16 -8 -9 -24 9 -25 3 -27 -39 -8 -36 17 -55 17 -71 1 -17 -17 -11 -20 20 -12 24 7 43 3 43 -8 0 -26 -244 -11 -261 17 -10 16 -16 16 -22 1 -10 -30 -243 -36 -253 -6 -4 13 -16 23 -27 23 -11 0 -14 -11 -7 -25 7 -14 -9 -1 -36 29 -28 29 -55 48 -62 41 -7 -6 -12 0 -12 13 0 14 -29 56 -64 93 -35 37 -66 87 -70 112 -9 56 -7 56 -61 35 -92 -34 -1 -267 164 -418 l55 -50 -167 -11 c-92 -6 787 -11 1953 -11 1166 0 2023 3 1903 7 l-216 6 110 119 c407 440 348 1182 -122 1517 -63 45 -145 58 -145 23 0 -11 11 -18 25 -15 15 3 25 -16 24 -48 0 -34 8 -49 25 -43 16 7 26 -6 26 -32 0 -27 18 -50 50 -62 28 -10 50 -33 50 -50 0 -16 10 -30 21 -30 12 0 16 -8 10 -18 -6 -10 3 -23 19 -29 17 -7 30 -24 30 -39 0 -15 17 -43 38 -62 36 -33 74 -153 64 -207 -2 -14 12 -25 30 -25 32 0 32 -3 1 -37 -45 -49 -43 -155 2 -172 33 -13 33 -15 -1 -40 -27 -21 -30 -30 -10 -39 20 -9 21 -14 1 -24 -14 -6 -25 -20 -25 -31 0 -11 8 -14 19 -8 43 27 35 -26 -12 -77 -32 -34 -47 -69 -41 -93 6 -22 3 -39 -7 -39 -9 0 -22 -18 -29 -40 -7 -22 -22 -35 -33 -28 -13 8 -13 -2 1 -28 30 -57 26 -82 -6 -39 -23 30 -30 31 -50 7 -16 -19 -17 -33 -3 -41 12 -8 21 -24 21 -37 0 -14 -8 -12 -20 6 -16 25 -19 24 -20 -6 0 -20 -7 -32 -16 -26 -9 5 -32 -17 -51 -49 -32 -54 -68 -71 -123 -60 -11 3 -76 4 -144 3 -100 0 -125 6 -132 34 -9 31 -10 31 -12 -1 -2 -30 -23 -35 -147 -35 -101 -1 -136 -6 -115 -20 22 -14 8 -19 -54 -20 -49 0 -96 -13 -115 -32 -90 -90 -89 -4 1 106 86 105 217 343 199 361 -21 22 -149 -88 -139 -120 8 -27 2 -32 -24 -21 -23 9 -30 5 -20 -11 9 -15 -1 -23 -28 -23 -23 0 -37 -8 -32 -18 6 -9 -19 -50 -57 -90 -94 -100 -363 -105 -325 -6 6 18 -2 36 -19 42 -42 17 -43 16 -52 -23 -7 -29 -13 -26 -29 15 -15 36 -14 54 2 65 13 9 8 15 -15 15 -20 0 -41 18 -47 40 -6 22 -27 40 -48 40 -24 0 -38 14 -38 39 0 21 -11 46 -25 55 -55 35 -85 97 -107 223 -23 125 -24 128 -25 43 -3 -214 86 -439 251 -634 84 -99 99 -126 69 -126 -50 0 -201 163 -272 295 -32 58 -65 105 -75 105 -21 0 2 -100 31 -137 16 -20 13 -34 -11 -51 -18 -13 -31 -42 -29 -63 2 -26 -10 -40 -37 -41 -22 -1 -66 -13 -98 -26 -106 -43 -121 -20 -51 76 160 221 200 333 155 432 -22 49 -6 223 36 382 9 34 1 45 -40 53 -29 5 -52 3 -52 -5 0 -19 -79 -402 -92 -445 -9 -28 2 -35 51 -35 43 0 61 -10 61 -32 0 -21 -11 -28 -32 -20 -26 10 -30 3 -21 -35 16 -61 -2 -77 -55 -50 -23 13 -35 15 -27 7 8 -9 5 -28 -6 -41 -15 -18 -14 -29 0 -38 33 -21 -16 -97 -53 -82 -21 8 -27 2 -19 -19 7 -18 1 -30 -16 -30 -15 0 -31 -9 -34 -19 -4 -12 -36 -13 -83 -2 -63 14 -75 12 -66 -11 15 -40 1 -35 -53 18 -25 26 -56 44 -69 39 -13 -4 -26 13 -29 38 -4 25 -29 57 -56 71 -28 13 -69 66 -92 117 -24 50 -51 92 -61 92 -10 -1 -16 21 -14 48 2 28 -7 46 -20 44 -52 -10 -65 220 -15 264 27 23 49 71 55 120 7 50 22 81 39 81 23 0 38 54 29 107 -7 35 22 93 40 82 10 -6 24 15 30 47 9 46 21 57 50 49 26 -7 38 1 38 24 0 45 95 137 124 119 15 -10 19 -4 11 17 -7 19 0 36 18 43 40 16 77 15 61 0 -6 -7 20 -42 58 -79 39 -36 77 -92 86 -123 10 -40 29 -58 66 -62 49 -6 100 -75 107 -144 2 -16 4 -41 6 -55 4 -37 102 -31 117 8 17 45 -21 98 -67 91 -27 -3 -39 8 -42 37 -5 67 -121 233 -232 330 -118 103 -195 115 -284 45z"/> <path d="M6955 3050 c5 -27 18 -50 29 -50 10 0 12 -10 5 -21 -8 -14 -23 -8 -40 15 -25 33 -26 31 -18 -19 7 -39 1 -55 -19 -55 -19 0 -28 -23 -28 -68 0 -37 -6 -87 -13 -110 -23 -73 3 -46 101 100 53 78 127 168 166 200 l71 58 -80 0 c-45 0 -91 -10 -104 -23 -18 -18 -30 -18 -51 0 -24 19 -27 14 -19 -27z"/> <path d="M7170 2973 c-116 -119 -230 -308 -230 -382 0 -43 14 -39 68 19 26 28 55 50 65 50 10 0 35 31 55 69 20 38 49 73 65 79 15 6 27 25 27 41 0 17 9 31 20 31 11 0 20 -10 20 -21 0 -12 9 -16 21 -8 14 8 12 23 -5 44 -25 31 -16 43 39 50 26 4 85 89 85 123 0 77 -103 34 -230 -95z"/> <path d="M7470 3080 c7 -11 4 -20 -7 -20 -11 0 -14 -19 -8 -42 8 -31 15 -35 27 -15 13 20 17 15 18 -17 0 -32 9 -41 31 -33 21 8 38 -7 54 -51 14 -37 38 -62 59 -62 23 0 36 -15 36 -40 0 -22 7 -40 16 -40 8 0 31 -27 51 -61 85 -143 186 -209 160 -104 -34 136 -201 367 -328 456 -72 50 -132 66 -109 29z"/> <path d="M620 2790 c0 -26 106 -30 785 -35 l785 -5 5 -407 c4 -284 -1 -416 -17 -435 -29 -35 -1875 -42 -1939 -7 -36 19 -39 45 -39 390 0 282 -6 369 -25 369 -49 0 -23 -742 28 -785 60 -51 1921 -54 1993 -4 69 49 69 869 0 918 -66 46 -1576 47 -1576 1z"/> <path d="M6471 2655 c-4 -14 -14 -68 -21 -121 -11 -82 -18 -94 -50 -84 -70 22 -196 -27 -250 -98 -186 -244 -36 -531 165 -318 72 76 75 70 30 -51 -8 -19 6 -24 47 -20 53 7 58 15 83 147 14 77 44 230 66 340 21 110 39 207 39 215 0 26 -101 16 -109 -10z m-73 -293 c60 -38 -114 -340 -183 -317 -82 28 -8 274 95 316 52 21 55 21 88 1z"/> <path d="M620 2320 l0 -340 169 0 c286 0 320 44 308 388 -9 265 -37 292 -298 292 l-179 0 0 -340z m310 0 l0 -230 -75 -6 -75 -6 0 242 0 242 75 -6 75 -6 0 -230z"/> <path d="M1215 2617 c-34 -25 -55 -59 -55 -89 0 -57 14 -60 63 -15 36 32 37 23 37 -260 l0 -293 60 0 61 0 -6 345 -5 344 -50 4 c-27 2 -75 -14 -105 -36z"/> <path d="M1468 2642 c-4 -5 -8 -53 -8 -107 0 -95 2 -97 55 -91 44 5 55 16 55 56 0 45 9 51 95 56 98 6 112 -7 75 -71 -24 -43 -123 -269 -160 -365 -14 -38 -34 -79 -43 -89 -35 -39 -16 -71 40 -71 54 0 63 13 152 225 53 124 108 251 123 283 15 32 28 86 28 120 l0 62 -202 0 c-110 0 -205 -4 -210 -8z"/> <path d="M5281 2426 c-125 -65 -209 -346 -128 -427 69 -69 307 -45 307 31 0 44 -5 47 -51 30 -83 -32 -146 -24 -170 22 -35 65 -9 98 77 98 108 0 212 72 220 152 11 109 -128 160 -255 94z m152 -78 c17 -44 -30 -83 -120 -99 l-77 -14 32 61 c44 85 141 116 165 52z"/> <path d="M7227 2391 l-70 -70 13 60 c12 53 8 59 -37 59 -45 0 -52 -10 -64 -95 -7 -52 -26 -149 -41 -215 -37 -161 -36 -170 22 -170 37 0 52 13 62 55 33 148 50 195 92 257 108 159 171 108 128 -102 -42 -202 -41 -210 18 -210 28 0 50 4 50 8 0 5 13 79 30 165 62 324 -26 435 -203 258z"/> <path d="M7810 2433 c-118 -55 -191 -182 -189 -331 1 -174 162 -200 272 -44 29 39 46 55 39 35 -40 -118 -38 -133 14 -133 48 0 163 437 125 475 -25 25 -205 24 -261 -2z m143 -84 c36 -93 -143 -339 -207 -286 -56 46 7 241 93 288 67 36 100 36 114 -2z"/> <path d="M8449 2411 c-27 -27 -49 -60 -49 -73 0 -14 -5 -20 -11 -14 -5 6 -1 34 10 63 19 49 16 53 -35 53 -55 0 -57 -5 -91 -185 -19 -102 -40 -210 -46 -240 -12 -59 86 -88 101 -30 4 14 17 70 30 125 28 117 93 219 157 248 51 24 62 102 14 102 -17 0 -53 -22 -80 -49z"/> <path d="M240 1639 c0 -155 22 -183 111 -142 105 48 59 283 -55 283 l-56 0 0 -141z m116 -14 c5 -95 2 -105 -35 -105 -36 0 -41 12 -41 111 0 159 67 154 76 -6z"/> <path d="M440 1640 c0 -80 9 -140 20 -140 11 0 20 60 20 140 0 80 -9 140 -20 140 -11 0 -20 -60 -20 -140z"/> <path d="M520 1740 c-58 -108 17 -284 101 -239 58 31 54 139 -5 139 -34 0 -39 -5 -20 -24 38 -38 30 -100 -11 -92 -62 12 -57 216 5 216 17 0 30 -13 30 -30 0 -16 9 -30 20 -30 28 0 25 47 -4 76 -36 36 -92 29 -116 -16z"/> <path d="M700 1640 c0 -80 9 -140 20 -140 11 0 20 60 20 140 0 80 -9 140 -20 140 -11 0 -20 -60 -20 -140z"/> <path d="M780 1640 c0 -80 9 -140 20 -140 11 0 20 22 20 49 0 35 12 50 45 55 53 7 77 130 31 159 -86 55 -116 23 -116 -123z m96 43 c5 -28 -4 -43 -25 -43 -20 0 -31 18 -31 52 0 62 47 55 56 -9z"/> <path d="M974 1768 c-8 -8 -14 -72 -14 -143 l0 -128 65 7 65 6 0 130 c0 128 -55 189 -116 128z m82 -145 c5 -82 0 -103 -25 -103 -24 0 -31 24 -31 112 0 147 47 140 56 -9z"/> <path d="M1153 1767 c-29 -29 -10 -102 37 -147 52 -49 66 -100 27 -100 -12 0 -35 16 -51 35 -26 33 -27 33 -22 -5 5 -29 24 -42 71 -46 85 -8 90 58 11 140 -43 45 -49 61 -29 81 20 20 28 19 43 -5 22 -36 49 -13 33 29 -12 31 -94 43 -120 18z"/> <path d="M1300 1760 c0 -11 14 -20 30 -20 23 0 30 -27 30 -120 0 -67 9 -120 20 -120 11 0 20 50 20 111 0 80 8 113 30 122 57 22 30 47 -50 47 -44 0 -80 -9 -80 -20z"/> <path d="M1500 1640 l0 -143 65 7 65 6 0 130 0 130 -65 6 -65 7 0 -143z"/> <path d="M1691 1685 c-8 -52 -19 -115 -25 -140 -6 -26 -1 -45 12 -45 12 0 22 14 22 30 0 17 13 30 28 30 15 0 33 -13 39 -30 7 -16 20 -30 30 -30 16 0 10 55 -28 235 -17 81 -64 51 -78 -50z"/> <path d="M1838 1772 c-4 -5 -4 -70 1 -145 9 -132 9 -134 21 -47 l12 90 27 -85 c40 -125 61 -104 58 60 -2 118 -5 130 -15 65 l-13 -80 -26 75 c-24 69 -43 88 -65 67z"/> <path d="M2000 1640 c0 -80 9 -140 20 -140 11 0 20 25 21 55 l1 55 29 -55 c26 -47 85 -84 64 -40 -4 8 -19 40 -34 70 -23 46 -23 63 0 110 15 30 31 62 35 70 4 8 -6 15 -21 15 -16 0 -39 -20 -51 -45 l-21 -45 -2 45 c-3 116 -41 30 -41 -95z"/> <path d="M4667 1314 c-22 -28 -64 -54 -94 -57 l-54 -7 52 -76 c46 -68 49 -83 28 -146 -21 -66 -15 -224 13 -296 6 -17 0 -44 -15 -60 -15 -15 -140 -144 -277 -285 -310 -317 -337 -350 -245 -296 36 21 65 45 65 53 0 9 12 16 26 16 15 0 46 23 70 50 24 28 53 50 65 50 12 0 16 9 9 20 -7 11 -4 20 6 20 26 0 124 94 111 106 -6 6 8 21 31 33 28 15 42 15 42 2 0 -12 10 -21 21 -21 12 0 17 8 11 17 -6 9 1 33 14 51 24 33 26 32 28 -2 2 -20 8 -81 15 -136 7 -55 14 -115 16 -134 4 -39 87 -90 110 -68 22 22 31 1113 10 1170 l-18 47 -40 -51z"/> <path d="M3534 1155 c-63 -70 -44 -129 22 -69 34 31 39 31 70 -1 27 -26 39 -28 58 -9 19 19 12 37 -35 83 l-59 58 -56 -62z"/> <path d="M5170 1014 c-227 -117 -281 -153 -287 -191 -10 -71 14 -143 47 -143 25 0 30 -38 30 -210 0 -173 -5 -210 -30 -210 -16 0 -30 -14 -30 -32 0 -17 -18 -36 -40 -42 -22 -6 -40 -19 -40 -30 0 -11 -20 -35 -43 -55 -118 -95 -75 -101 712 -101 l731 0 0 52 c0 35 -13 55 -40 62 -22 6 -40 23 -40 38 0 16 -13 28 -30 28 -16 0 -30 10 -30 21 0 45 43 99 79 99 33 0 61 36 61 80 0 9 -47 24 -105 34 l-105 16 -6 123 c-5 109 -1 123 35 133 33 8 41 26 41 97 l0 87 -287 145 c-345 174 -283 174 -623 -1z m351 -22 c33 2 71 -7 85 -21 13 -13 36 -20 50 -16 14 5 61 -6 105 -23 95 -38 106 -39 87 -9 -8 13 -3 18 14 12 15 -5 26 -21 22 -34 -3 -15 9 -20 32 -12 20 6 54 -3 75 -20 38 -30 38 -31 -5 -10 -58 28 -67 27 -53 -9 14 -38 -881 -46 -904 -9 -7 12 -28 16 -46 9 -65 -24 7 28 106 79 129 65 144 49 18 -19 -107 -57 -99 -56 163 39 99 36 182 59 185 52 3 -7 33 -11 66 -9z m479 -237 c0 -32 -38 -35 -520 -35 -482 0 -520 3 -520 35 0 32 38 35 520 35 482 0 520 -3 520 -35z m-874 -107 c-10 -57 -8 -188 5 -283 l15 -105 -61 0 -60 0 2 211 1 211 51 -6 c28 -3 49 -16 47 -28z m114 -178 c0 -248 -44 -306 -67 -87 -24 230 -18 297 27 297 37 0 40 -13 40 -210z m160 153 c0 -31 6 -126 13 -210 l13 -153 -72 0 -72 0 4 210 3 210 56 0 c47 0 55 -8 55 -57z m120 -153 c0 -173 -5 -210 -30 -210 -20 0 -30 20 -30 57 0 31 -6 126 -13 210 -12 147 -11 153 30 153 41 0 43 -9 43 -210z m160 0 l0 -210 -60 0 -60 0 0 210 0 210 60 0 60 0 0 -210z m120 0 c0 -187 -4 -210 -35 -210 -31 0 -36 26 -40 210 -5 198 -3 210 35 210 37 0 40 -13 40 -210z m155 0 l4 -210 -59 0 -60 0 0 210 0 210 55 0 55 0 5 -210z m80 -275 c-14 -41 -1095 -46 -1095 -5 0 26 72 30 552 30 432 0 550 -5 543 -25z m65 -75 c0 -13 -220 -20 -620 -20 -400 0 -620 7 -620 20 0 13 220 20 620 20 400 0 620 -7 620 -20z m60 -57 c-11 -3 -15 -15 -9 -25 7 -11 -262 -18 -668 -18 -524 0 -681 6 -688 25 -8 20 138 25 688 25 383 0 688 -3 677 -7z"/> <path d="M6620 1065 c1 -83 141 -376 183 -381 44 -5 177 276 177 375 0 88 -88 0 -128 -129 -48 -154 -49 -154 -102 25 -31 107 -43 125 -83 125 -26 0 -47 -7 -47 -15z"/> <path d="M7020 1040 c0 -27 13 -40 40 -40 27 0 40 13 40 40 0 27 -13 40 -40 40 -27 0 -40 -13 -40 -40z"/> <path d="M8870 1045 c-43 -32 -74 -109 -52 -131 12 -12 22 -60 22 -107 0 -91 45 -157 94 -138 16 6 33 11 38 11 22 0 4 57 -22 67 -42 16 -39 132 5 166 33 26 33 28 0 54 -21 17 -31 41 -23 60 13 34 -25 45 -62 18z"/> <path d="M3489 978 c-7 -12 12 -48 43 -80 l56 -59 60 60 c71 71 48 139 -25 74 -33 -30 -40 -31 -63 -4 -29 36 -53 39 -71 9z"/> <path d="M7045 966 c-47 -17 -33 -286 15 -286 36 0 40 13 40 139 0 139 -9 163 -55 147z"/> <path d="M7179 973 c-24 -143 -6 -293 35 -293 42 0 46 9 46 110 0 97 5 110 40 110 22 0 40 9 40 20 0 11 2 27 5 35 3 8 -33 16 -80 18 -47 2 -85 2 -86 0z"/> <path d="M7434 958 c-49 -29 -78 -113 -63 -182 23 -104 186 -141 240 -55 18 30 -34 64 -60 38 -29 -29 -85 -23 -98 11 -10 24 8 30 88 30 114 0 130 35 58 127 -44 55 -104 66 -165 31z m121 -73 c6 -17 -13 -25 -56 -25 -55 0 -60 4 -38 31 29 35 82 32 94 -6z"/> <path d="M7699 972 c-33 -48 -5 -292 33 -292 42 0 47 10 52 115 4 86 14 115 36 115 22 0 32 -29 36 -115 8 -160 84 -176 84 -17 0 98 36 159 79 133 12 -8 21 -62 21 -122 0 -96 5 -109 40 -109 36 0 40 13 40 119 0 154 -79 234 -155 158 -16 -16 -31 -17 -49 -3 -19 15 -208 30 -217 18z"/> <path d="M8224 949 c-127 -89 -8 -332 130 -265 90 44 84 83 -9 67 -62 -11 -82 -7 -92 18 -10 26 6 31 88 31 92 0 99 3 99 50 0 107 -123 163 -216 99z m130 -62 c4 -12 -15 -26 -43 -32 -49 -9 -69 20 -37 52 20 20 71 7 80 -20z"/> <path d="M8500 830 c0 -137 4 -150 40 -150 35 0 40 13 40 98 0 98 36 159 79 133 12 -8 21 -62 21 -122 0 -96 5 -109 40 -109 69 0 59 252 -11 284 -40 18 -61 18 -90 0 -23 -15 -42 -16 -49 -4 -42 67 -70 14 -70 -130z"/> <path d="M3060 701 c0 -76 3 -81 59 -81 72 0 84 17 64 92 -27 102 -123 94 -123 -11z"/> <path d="M3220 700 c0 -44 9 -80 20 -80 11 0 20 36 20 80 0 44 -9 80 -20 80 -11 0 -20 -36 -20 -80z"/> <path d="M3300 700 c0 -82 39 -116 41 -35 l1 45 31 -45 c50 -71 91 -58 83 25 -3 39 -15 70 -26 69 -11 -1 -17 -15 -14 -30 8 -42 -22 -35 -51 11 -40 63 -65 47 -65 -40z"/> <path d="M3508 708 c-35 -83 -28 -100 29 -70 27 15 45 15 53 2 33 -53 43 -11 15 60 -38 99 -59 100 -97 8z"/> <path d="M3660 700 c0 -44 9 -80 20 -80 11 0 20 20 20 44 l0 45 31 -45 c46 -65 69 -54 69 36 0 82 -39 116 -41 35 l-1 -45 -31 45 c-47 66 -67 55 -67 -35z"/> <path d="M3850 740 c-63 -70 50 -168 116 -102 16 16 7 22 -32 22 -41 0 -54 10 -54 41 0 30 11 40 39 35 22 -3 42 3 45 14 12 39 -77 31 -114 -10z"/> <path d="M4000 700 c0 -78 1 -80 71 -80 77 0 79 39 3 42 -41 2 -40 3 6 17 l50 16 -50 21 c-49 21 -49 21 -5 23 68 2 54 41 -15 41 -57 0 -60 -4 -60 -80z"/> <path d="M2579 602 c22 -32 41 -68 41 -80 0 -12 12 -22 27 -22 14 0 38 -22 53 -50 15 -27 41 -50 58 -50 25 -1 26 -4 5 -18 -20 -12 -16 -19 17 -28 28 -7 39 -20 29 -36 -9 -14 -7 -19 5 -12 11 7 55 -23 98 -67 69 -70 228 -174 228 -149 0 5 -126 135 -280 290 -267 266 -372 350 -281 222z"/> <path d="M6678 525 c-1 -3 -2 -93 -3 -200 l-2 -195 109 -5 c178 -9 294 110 186 189 -28 20 -30 32 -12 50 31 31 31 106 -1 132 -21 17 -272 44 -277 29z m216 -97 c14 -37 -25 -67 -89 -68 -35 0 -45 11 -45 50 0 60 112 75 134 18z m16 -178 c0 -32 -15 -41 -75 -46 -69 -6 -75 -2 -75 46 0 48 6 52 75 46 60 -5 75 -14 75 -46z"/> <path d="M8334 527 c-31 -31 -11 -67 37 -67 39 0 50 9 45 35 -7 36 -58 56 -82 32z"/> <path d="M7084 396 c-44 -44 -25 -60 58 -46 103 18 101 -24 -3 -58 -57 -18 -70 -33 -75 -86 -7 -72 15 -83 167 -81 l81 0 -7 123 c-4 67 -11 133 -16 147 -10 32 -173 33 -205 1z m136 -167 c0 -40 -56 -61 -86 -31 -18 18 -17 28 6 43 45 28 80 23 80 -12z"/> <path d="M7380 268 c0 -133 4 -148 39 -148 33 0 40 16 45 115 9 181 96 187 96 6 0 -108 4 -121 40 -121 36 0 40 13 40 128 0 153 -16 170 -156 169 l-104 -1 0 -148z"/> <path d="M7731 376 c-106 -152 81 -344 210 -215 67 67 7 111 -64 46 -51 -46 -101 -2 -93 81 6 60 96 110 96 53 0 -11 18 -21 40 -21 22 0 40 12 40 26 0 83 -176 106 -229 30z"/> <path d="M8044 396 c-44 -44 -25 -60 58 -46 97 17 105 -27 10 -53 -178 -47 -139 -177 52 -170 l104 4 -6 119 c-3 66 -15 131 -26 145 -27 32 -160 33 -192 1z m136 -167 c0 -16 -14 -36 -31 -42 -38 -15 -79 21 -60 51 20 33 91 26 91 -9z"/> <path d="M8337 278 c-7 -144 2 -170 54 -150 50 19 41 292 -9 292 -34 0 -40 -18 -45 -142z"/> <path d="M8484 273 c5 -128 10 -143 46 -143 34 0 39 11 34 74 -7 78 26 164 56 146 10 -6 27 7 39 28 20 37 15 40 -80 39 l-101 -1 6 -143z"/> <path d="M8737 399 c-85 -49 -57 -248 38 -272 66 -17 153 15 161 58 8 41 -55 48 -91 12 -18 -18 -31 -17 -54 2 -53 44 -34 61 69 61 82 0 100 6 100 36 0 100 -127 159 -223 103z m138 -74 c5 -16 -13 -25 -53 -25 -60 0 -78 18 -48 48 22 21 92 5 101 -23z"/> <path d="M3005 5 c316 -3 834 -3 1150 0 316 3 58 6 -575 6 -632 0 -891 -3 -575 -6z"/> </g> </svg> 