<?xml version="1.0" standalone="no"?>
<!DOCTYPE svg PUBLIC "-//W3C//DTD SVG 20010904//EN"
 "http://www.w3.org/TR/2001/REC-SVG-20010904/DTD/svg10.dtd">
<svg version="1.0" xmlns="http://www.w3.org/2000/svg"
 width="512.000000pt" height="512.000000pt" viewBox="0 0 512.000000 512.000000"
 preserveAspectRatio="xMidYMid meet">

<g transform="translate(0.000000,512.000000) scale(0.100000,-0.100000)"
fill="#000000" stroke="none">
<path d="M1313 5063 c686 -2 1808 -2 2495 0 686 1 124 2 -1248 2 -1372 0
-1934 -1 -1247 -2z"/>
<path d="M55 2560 c0 -1372 1 -1934 2 -1248 2 687 2 1809 0 2495 -1 687 -2
125 -2 -1247z"/>
<path d="M1357 3983 c-4 -3 -7 -17 -7 -30 l0 -23 1648 0 c1585 0 1649 -1 1682
-19 19 -10 49 -37 65 -60 l30 -43 0 -852 0 -852 -28 -43 c-18 -27 -44 -50 -70
-62 -41 -18 -100 -19 -2090 -19 -1990 0 -2049 1 -2085 19 -46 23 -67 46 -87
94 -13 32 -15 136 -15 802 l0 765 -30 0 -31 0 3 -778 3 -778 26 -49 c32 -62
93 -110 159 -124 68 -15 4033 -16 4111 -1 73 14 127 53 161 119 l28 53 0 852
0 852 -27 55 c-31 60 -86 105 -149 119 -45 11 -3287 14 -3297 3z"/>
<path d="M2622 3573 l-112 -77 0 -109 c0 -84 3 -107 13 -101 6 4 53 36 103 71
51 35 95 63 98 63 3 0 6 -281 6 -625 l0 -625 115 0 115 0 0 740 0 740 -113 0
-112 0 -113 -77z"/>
<path d="M3160 3440 l0 -210 110 0 110 0 0 105 0 105 216 0 c169 0 215 -3 211
-12 -3 -7 -124 -293 -270 -636 l-265 -623 126 3 127 3 267 625 267 625 0 113
1 112 -450 0 -450 0 0 -210z"/>
<path d="M2341 3344 c0 -11 3 -14 6 -6 3 7 2 16 -1 19 -3 4 -6 -2 -5 -13z"/>
<path d="M2341 2524 c0 -11 3 -14 6 -6 3 7 2 16 -1 19 -3 4 -6 -2 -5 -13z"/>
<path d="M3260 1461 l0 -301 91 0 c156 0 189 30 189 174 0 80 -2 88 -29 118
l-28 32 21 17 c18 15 22 30 24 102 4 82 3 85 -26 118 l-30 34 -106 3 -106 4 0
-301z m184 207 c9 -13 16 -43 16 -70 0 -62 -24 -88 -80 -88 l-40 0 0 90 0 90
44 0 c35 0 48 -5 60 -22z m2 -242 c16 -12 19 -27 19 -91 0 -90 -12 -105 -82
-105 l-43 0 0 105 0 105 43 0 c24 0 52 -6 63 -14z"/>
<path d="M3636 1472 c-31 -159 -56 -294 -56 -300 0 -7 15 -12 34 -12 33 0 34
1 45 60 l12 61 72 -3 72 -3 10 -55 c10 -54 11 -55 48 -58 20 -2 37 0 37 5 0 4
-25 136 -55 293 -30 157 -55 288 -55 293 0 4 -24 7 -54 7 l-54 0 -56 -288z
m133 41 c12 -65 25 -128 28 -140 5 -22 2 -23 -57 -23 -46 0 -61 3 -57 13 2 6
15 69 28 139 13 71 26 128 29 128 3 0 16 -53 29 -117z"/>
<path d="M3950 1460 l0 -300 35 0 35 0 0 218 c0 119 4 212 8 205 4 -7 37 -104
72 -217 l65 -206 38 0 37 0 0 300 0 300 -36 0 -35 0 3 -185 c2 -102 1 -185 -2
-185 -3 0 -32 83 -64 185 l-59 185 -49 0 -48 0 0 -300z"/>
<path d="M4300 1460 l0 -300 40 0 40 0 0 101 c0 92 9 139 28 139 4 0 34 -54
67 -120 l59 -120 38 0 c21 0 38 2 38 5 0 3 -34 73 -75 155 -41 82 -75 156 -75
164 0 7 32 70 70 139 39 69 70 128 70 131 0 3 -17 6 -37 6 l-38 0 -70 -128
-70 -127 -3 128 -3 127 -39 0 -40 0 0 -300z"/>
<path d="M1140 1186 c0 -2 8 -10 18 -17 15 -13 16 -12 3 4 -13 16 -21 21 -21
13z"/>
</g>
</svg>
