<svg width="52" height="35" viewBox="0 0 52 35" fill="none" xmlns="http://www.w3.org/2000/svg">
<rect x="0.5" y="0.5" width="50.04" height="34" rx="5.5" fill="white" stroke="#D9D9D9"/>
<path fill-rule="evenodd" clip-rule="evenodd" d="M15.4947 23.7101H12.4026L10.084 14.864C9.97393 14.4571 9.74025 14.0974 9.39653 13.9278C8.53872 13.5017 7.59347 13.1626 6.56229 12.9916V12.651H11.5433C12.2308 12.651 12.7464 13.1626 12.8323 13.7568L14.0353 20.1378L17.1259 12.651H20.132L15.4947 23.7101ZM21.8506 23.7101H18.9304L21.335 12.651H24.2552L21.8506 23.7101ZM28.0332 15.7147C28.1191 15.1191 28.6347 14.7785 29.2362 14.7785C30.1814 14.693 31.2111 14.864 32.0704 15.2887L32.586 12.9076C31.7267 12.567 30.7815 12.396 29.9237 12.396C27.0894 12.396 25.0271 13.9278 25.0271 16.0538C25.0271 17.6712 26.4879 18.5204 27.5191 19.032C28.6347 19.5421 29.0643 19.8827 28.9784 20.3928C28.9784 21.158 28.1191 21.4986 27.2613 21.4986C26.2301 21.4986 25.1989 21.2435 24.2552 20.8175L23.7396 23.2C24.7708 23.6246 25.8864 23.7956 26.9176 23.7956C30.0955 23.8797 32.0704 22.3493 32.0704 20.0523C32.0704 17.1596 28.0332 16.9901 28.0332 15.7147ZM42.2903 23.7101L39.9716 12.651H37.4811C36.9655 12.651 36.4499 12.9916 36.2781 13.5017L31.9845 23.7101H34.9906L35.5906 22.0942H39.2842L39.6279 23.7101H42.2903ZM37.9108 15.6292L38.7686 19.7972H36.364L37.9108 15.6292Z" fill="#172B85"/>
</svg>
