<?xml version="1.0" standalone="no"?>
<!DOCTYPE svg PUBLIC "-//W3C//DTD SVG 20010904//EN"
 "http://www.w3.org/TR/2001/REC-SVG-20010904/DTD/svg10.dtd">
<svg version="1.0" xmlns="http://www.w3.org/2000/svg"
 width="2560.000000pt" height="747.000000pt" viewBox="0 0 2560.000000 747.000000"
 preserveAspectRatio="xMidYMid meet">

<g transform="translate(0.000000,747.000000) scale(0.100000,-0.100000)"
fill="#000000" stroke="none">
<path d="M0 3735 l0 -3735 12800 0 12800 0 0 3735 0 3735 -12800 0 -12800 0 0
-3735z m9423 2275 c350 -74 519 -244 551 -552 l6 -58 -364 0 c-404 0 -366 -7
-381 66 -6 32 -42 72 -82 93 -30 15 -157 14 -197 -3 -98 -41 -102 -162 -6
-211 16 -8 131 -42 257 -74 470 -123 629 -199 735 -351 62 -89 90 -193 91
-330 0 -76 -5 -137 -16 -180 -57 -219 -210 -375 -449 -459 -301 -105 -788
-100 -1066 10 -247 98 -379 273 -407 537 l-6 62 390 0 390 0 6 -37 c15 -94 72
-166 140 -179 101 -19 206 20 241 88 23 45 22 112 -2 146 -32 43 -90 65 -424
162 -432 125 -531 176 -621 318 -90 142 -102 396 -28 569 91 212 330 357 661
402 124 17 467 6 581 -19z m11167 -2270 l0 -2290 -130 0 -130 0 0 2290 0 2290
130 0 130 0 0 -2290z m2465 2245 c50 -25 105 -79 130 -130 27 -53 28 -185 2
-232 -52 -98 -140 -153 -243 -153 -109 0 -195 47 -244 133 -87 152 -11 343
160 398 42 14 152 5 195 -16z m-19890 -17 c3 -13 41 -291 85 -618 44 -327 84
-610 88 -629 5 -24 32 136 101 605 52 352 96 645 99 652 3 9 97 12 423 12 230
0 419 -2 419 -4 0 -16 191 -1290 194 -1293 6 -6 11 32 96 671 45 336 83 614
86 618 7 11 724 10 724 -1 0 -5 -97 -456 -215 -1003 -118 -546 -218 -1005
-221 -1020 l-6 -28 -444 0 c-244 0 -444 4 -444 9 0 18 -189 1313 -192 1316 -2
2 -46 -295 -98 -661 l-95 -664 -442 0 c-412 0 -442 1 -447 18 -12 40 -436
2008 -436 2024 0 17 21 18 360 18 l360 0 5 -22z m4383 -250 l2 -268 -395 0
-395 0 0 -110 0 -110 365 0 365 0 0 -265 0 -265 -362 -2 -363 -3 -3 -117 -3
-118 406 0 405 0 0 -265 0 -265 -795 0 -795 0 0 1023 c0 563 3 1027 7 1030 3
4 356 6 782 5 l776 -3 3 -267z m4790 -5 l2 -273 -255 0 -255 0 0 -755 0 -755
-410 0 -410 0 0 755 0 755 -255 0 -255 0 0 268 c0 148 3 272 7 275 3 4 416 6
917 5 l911 -3 3 -272z m2120 5 l2 -268 -395 0 -395 0 0 -110 0 -110 365 0 365
0 0 -265 0 -265 -362 -2 -363 -3 -3 -117 -3 -118 406 0 405 0 0 -265 0 -265
-795 0 -795 0 0 1030 0 1030 783 -2 782 -3 3 -267z m2109 248 c171 -33 280
-92 355 -191 102 -134 117 -409 31 -567 -53 -97 -194 -198 -312 -223 -40 -9
-27 -19 36 -29 104 -16 204 -88 248 -181 27 -59 43 -146 75 -415 18 -148 58
-368 77 -416 4 -12 -59 -14 -395 -14 l-400 0 -15 63 c-9 34 -28 141 -42 237
-44 294 -53 340 -69 365 -31 47 -63 59 -168 63 l-98 4 0 -366 0 -366 -400 0
-400 0 0 1031 0 1031 698 -5 c585 -4 710 -7 779 -21z m2282 -600 l216 -619 5
619 5 619 330 0 330 0 3 -1027 2 -1028 -492 0 -493 0 -215 625 c-118 344 -218
625 -222 625 -5 0 -8 -281 -8 -625 l0 -625 -330 0 -330 0 0 1023 c0 563 3
1027 7 1030 3 4 225 6 491 5 l485 -3 216 -619z m3581 -1641 l0 -2265 -125 0
-125 0 0 2265 0 2265 125 0 125 0 0 -2265z m-6210 -172 c455 -73 739 -382 801
-869 16 -132 6 -392 -20 -504 -78 -333 -239 -543 -515 -670 -165 -76 -340
-106 -576 -97 -301 11 -513 89 -687 251 -212 197 -313 465 -313 829 0 348 96
616 290 807 231 227 604 320 1020 253z m-7340 -726 c0 -773 0 -768 64 -825 87
-76 210 -38 244 75 9 30 12 221 12 742 l0 701 410 0 411 0 -4 -762 c-3 -855 1
-807 -79 -960 -57 -111 -165 -211 -291 -273 -181 -88 -382 -121 -672 -112
-505 16 -790 188 -887 534 -22 76 -22 93 -26 826 l-3 747 410 0 411 0 0 -693z
m2848 551 c27 -79 125 -361 218 -628 l169 -485 3 628 2 627 330 0 330 0 0
-1030 0 -1030 -488 0 -489 0 -203 588 c-112 323 -212 605 -221 627 -17 39 -18
18 -18 -587 l-1 -628 -330 0 -330 0 0 1030 0 1030 489 0 489 0 50 -142z m2562
-888 l0 -1030 -407 2 -408 3 -3 1028 -2 1027 410 0 410 0 0 -1030z m4560 410
l215 -619 3 620 2 619 335 0 335 0 -2 -1027 -3 -1028 -489 0 -489 0 -216 622
c-119 343 -219 623 -223 623 -5 0 -8 -281 -8 -625 l0 -625 -327 2 -328 3 -3
1028 -2 1027 492 0 493 0 215 -620z"/>
<path d="M22861 5967 c-50 -19 -111 -75 -132 -121 -23 -51 -25 -153 -4 -204
67 -159 295 -189 395 -51 84 116 53 286 -65 355 -53 31 -142 40 -194 21z m179
-92 c56 -29 46 -119 -15 -139 -17 -6 -32 -11 -34 -13 -2 -1 15 -32 37 -68 39
-61 40 -65 19 -65 -16 1 -32 18 -63 68 -37 62 -43 67 -75 67 l-34 0 -3 -67
c-2 -52 -6 -68 -17 -68 -13 0 -15 25 -15 150 l0 150 85 0 c56 0 96 -5 115 -15z"/>
<path d="M22877 5863 c-4 -3 -7 -28 -7 -55 l0 -48 70 0 c63 0 71 2 86 25 20
30 10 63 -23 76 -28 10 -116 12 -126 2z"/>
<path d="M15890 5326 l0 -196 73 0 c148 0 233 50 257 150 10 41 10 64 1 105
-20 90 -79 124 -233 133 l-98 5 0 -197z"/>
<path d="M15894 3026 c-106 -46 -153 -250 -141 -611 12 -330 59 -448 188 -470
55 -9 118 12 156 51 62 66 93 234 93 503 0 319 -47 486 -147 527 -41 18 -109
17 -149 0z"/>
</g>
</svg>
